<mxfile host="65bd71144e">
    <diagram id="LTZot4Z_f4bx5eSDrSgO" name="Page-1">
        <mxGraphModel dx="2470" dy="1175" grid="1" gridSize="10" guides="1" tooltips="1" connect="1" arrows="1" fold="1" page="1" pageScale="1" pageWidth="850" pageHeight="1100" math="0" shadow="0">
            <root>
                <mxCell id="0"/>
                <mxCell id="1" parent="0"/>
                <mxCell id="2" value="OUVRAGE" style="swimlane;whiteSpace=wrap;html=1;" parent="1" vertex="1">
                    <mxGeometry x="280" y="70" width="160" height="200" as="geometry"/>
                </mxCell>
                <mxCell id="7" value="&lt;u&gt;id_ouvrage&lt;/u&gt;" style="text;html=1;align=center;verticalAlign=middle;resizable=0;points=[];autosize=1;strokeColor=none;fillColor=none;" parent="2" vertex="1">
                    <mxGeometry x="40" y="30" width="80" height="30" as="geometry"/>
                </mxCell>
                <mxCell id="9" value="Nbre_page" style="text;html=1;align=center;verticalAlign=middle;resizable=0;points=[];autosize=1;strokeColor=none;fillColor=none;" parent="2" vertex="1">
                    <mxGeometry x="40" y="115" width="80" height="30" as="geometry"/>
                </mxCell>
                <mxCell id="8" value="titre" style="text;html=1;align=center;verticalAlign=middle;resizable=0;points=[];autosize=1;strokeColor=none;fillColor=none;" parent="2" vertex="1">
                    <mxGeometry x="60" y="80" width="40" height="30" as="geometry"/>
                </mxCell>
                <mxCell id="23" value="1,N" style="text;html=1;align=center;verticalAlign=middle;resizable=0;points=[];autosize=1;strokeColor=none;fillColor=none;" parent="2" vertex="1">
                    <mxGeometry x="70" y="200" width="40" height="30" as="geometry"/>
                </mxCell>
                <mxCell id="3" value="&lt;u&gt;&lt;b&gt;1er cas:&lt;/b&gt;&lt;/u&gt;" style="text;html=1;align=center;verticalAlign=middle;resizable=0;points=[];autosize=1;strokeColor=none;fillColor=none;" parent="1" vertex="1">
                    <mxGeometry x="20" y="40" width="70" height="30" as="geometry"/>
                </mxCell>
                <mxCell id="4" value="ADHERENT" style="swimlane;whiteSpace=wrap;html=1;" parent="1" vertex="1">
                    <mxGeometry x="680" y="70" width="160" height="200" as="geometry"/>
                </mxCell>
                <mxCell id="19" value="id_adherent" style="text;html=1;align=center;verticalAlign=middle;resizable=0;points=[];autosize=1;strokeColor=none;fillColor=none;" parent="4" vertex="1">
                    <mxGeometry x="35" y="40" width="90" height="30" as="geometry"/>
                </mxCell>
                <mxCell id="20" value="nom_adherent" style="text;html=1;align=center;verticalAlign=middle;resizable=0;points=[];autosize=1;strokeColor=none;fillColor=none;" parent="4" vertex="1">
                    <mxGeometry x="30" y="70" width="100" height="30" as="geometry"/>
                </mxCell>
                <mxCell id="25" value="adresse" style="text;html=1;align=center;verticalAlign=middle;resizable=0;points=[];autosize=1;strokeColor=none;fillColor=none;" parent="4" vertex="1">
                    <mxGeometry x="45" y="100" width="70" height="30" as="geometry"/>
                </mxCell>
                <mxCell id="26" value="telephone" style="text;html=1;align=center;verticalAlign=middle;resizable=0;points=[];autosize=1;strokeColor=none;fillColor=none;" parent="4" vertex="1">
                    <mxGeometry x="45" y="130" width="80" height="30" as="geometry"/>
                </mxCell>
                <mxCell id="5" value="AUTEUR" style="swimlane;whiteSpace=wrap;html=1;" parent="1" vertex="1">
                    <mxGeometry x="610" y="320" width="160" height="200" as="geometry"/>
                </mxCell>
                <mxCell id="17" value="id_auteur&amp;nbsp;" style="text;html=1;align=center;verticalAlign=middle;resizable=0;points=[];autosize=1;strokeColor=none;fillColor=none;" parent="5" vertex="1">
                    <mxGeometry x="40" y="40" width="80" height="30" as="geometry"/>
                </mxCell>
                <mxCell id="18" value="nom_auteur" style="text;html=1;align=center;verticalAlign=middle;resizable=0;points=[];autosize=1;strokeColor=none;fillColor=none;" parent="5" vertex="1">
                    <mxGeometry x="35" y="70" width="90" height="30" as="geometry"/>
                </mxCell>
                <mxCell id="27" value="prenom" style="text;html=1;align=center;verticalAlign=middle;resizable=0;points=[];autosize=1;strokeColor=none;fillColor=none;" parent="5" vertex="1">
                    <mxGeometry x="50" y="100" width="60" height="30" as="geometry"/>
                </mxCell>
                <mxCell id="6" value="&lt;font style=&quot;font-size: 14px;&quot;&gt;&lt;u&gt;&lt;b&gt;Modèle Conceptuel de Données&lt;/b&gt;&lt;/u&gt;&lt;/font&gt;" style="text;html=1;align=center;verticalAlign=middle;resizable=0;points=[];autosize=1;strokeColor=none;fillColor=none;" parent="1" vertex="1">
                    <mxGeometry x="235" y="15" width="240" height="30" as="geometry"/>
                </mxCell>
                <mxCell id="10" value="EMPRUNTER" style="ellipse;whiteSpace=wrap;html=1;" parent="1" vertex="1">
                    <mxGeometry x="500" y="130" width="120" height="80" as="geometry"/>
                </mxCell>
                <mxCell id="12" value="" style="endArrow=none;html=1;entryX=1;entryY=0.5;entryDx=0;entryDy=0;exitX=0;exitY=0.5;exitDx=0;exitDy=0;" parent="1" source="4" target="10" edge="1">
                    <mxGeometry width="50" height="50" relative="1" as="geometry">
                        <mxPoint x="470" y="210" as="sourcePoint"/>
                        <mxPoint x="520" y="160" as="targetPoint"/>
                    </mxGeometry>
                </mxCell>
                <mxCell id="14" value="ECRIRE" style="ellipse;whiteSpace=wrap;html=1;" parent="1" vertex="1">
                    <mxGeometry x="300" y="380" width="120" height="80" as="geometry"/>
                </mxCell>
                <mxCell id="15" value="" style="endArrow=none;html=1;entryX=1;entryY=0.5;entryDx=0;entryDy=0;exitX=0;exitY=0.5;exitDx=0;exitDy=0;" parent="1" source="5" target="14" edge="1">
                    <mxGeometry width="50" height="50" relative="1" as="geometry">
                        <mxPoint x="470" y="330" as="sourcePoint"/>
                        <mxPoint x="520" y="280" as="targetPoint"/>
                    </mxGeometry>
                </mxCell>
                <mxCell id="16" value="" style="endArrow=none;html=1;entryX=0.5;entryY=1;entryDx=0;entryDy=0;exitX=0.5;exitY=0;exitDx=0;exitDy=0;" parent="1" source="14" target="2" edge="1">
                    <mxGeometry width="50" height="50" relative="1" as="geometry">
                        <mxPoint x="470" y="330" as="sourcePoint"/>
                        <mxPoint x="520" y="280" as="targetPoint"/>
                    </mxGeometry>
                </mxCell>
                <mxCell id="22" value="0,N" style="text;html=1;align=center;verticalAlign=middle;resizable=0;points=[];autosize=1;strokeColor=none;fillColor=none;" parent="1" vertex="1">
                    <mxGeometry x="645" y="150" width="40" height="30" as="geometry"/>
                </mxCell>
                <mxCell id="24" value="1,N" style="text;html=1;align=center;verticalAlign=middle;resizable=0;points=[];autosize=1;strokeColor=none;fillColor=none;" parent="1" vertex="1">
                    <mxGeometry x="570" y="395" width="40" height="30" as="geometry"/>
                </mxCell>
                <mxCell id="28" value="&lt;font style=&quot;font-size: 14px;&quot;&gt;&lt;u&gt;Graphe de dépendance fonctionnelle&lt;/u&gt;&lt;/font&gt;" style="text;html=1;align=center;verticalAlign=middle;resizable=0;points=[];autosize=1;strokeColor=none;fillColor=none;" parent="1" vertex="1">
                    <mxGeometry x="275" y="565" width="250" height="30" as="geometry"/>
                </mxCell>
                <mxCell id="30" value="id_adherent" style="text;html=1;align=center;verticalAlign=middle;resizable=0;points=[];autosize=1;strokeColor=none;fillColor=none;fontSize=12;" parent="1" vertex="1">
                    <mxGeometry x="355" y="650" width="90" height="30" as="geometry"/>
                </mxCell>
                <mxCell id="31" value="" style="endArrow=classic;html=1;fontSize=12;" parent="1" edge="1">
                    <mxGeometry width="50" height="50" relative="1" as="geometry">
                        <mxPoint x="360" y="680" as="sourcePoint"/>
                        <mxPoint x="280" y="760" as="targetPoint"/>
                    </mxGeometry>
                </mxCell>
                <mxCell id="33" value="" style="endArrow=classic;html=1;fontSize=12;" parent="1" edge="1">
                    <mxGeometry width="50" height="50" relative="1" as="geometry">
                        <mxPoint x="400" y="680" as="sourcePoint"/>
                        <mxPoint x="360" y="760" as="targetPoint"/>
                    </mxGeometry>
                </mxCell>
                <mxCell id="34" value="" style="endArrow=classic;html=1;fontSize=12;" parent="1" edge="1">
                    <mxGeometry width="50" height="50" relative="1" as="geometry">
                        <mxPoint x="420" y="680" as="sourcePoint"/>
                        <mxPoint x="440" y="760" as="targetPoint"/>
                    </mxGeometry>
                </mxCell>
                <mxCell id="35" value="" style="endArrow=classic;html=1;fontSize=12;" parent="1" edge="1">
                    <mxGeometry width="50" height="50" relative="1" as="geometry">
                        <mxPoint x="430" y="680" as="sourcePoint"/>
                        <mxPoint x="520" y="760" as="targetPoint"/>
                    </mxGeometry>
                </mxCell>
                <mxCell id="36" value="nom_adherent" style="text;html=1;align=center;verticalAlign=middle;resizable=0;points=[];autosize=1;strokeColor=none;fillColor=none;fontSize=12;" parent="1" vertex="1">
                    <mxGeometry x="210" y="765" width="100" height="30" as="geometry"/>
                </mxCell>
                <mxCell id="37" value="adresse" style="text;html=1;align=center;verticalAlign=middle;resizable=0;points=[];autosize=1;strokeColor=none;fillColor=none;fontSize=12;" parent="1" vertex="1">
                    <mxGeometry x="325" y="765" width="70" height="30" as="geometry"/>
                </mxCell>
                <mxCell id="38" value="telephone" style="text;html=1;align=center;verticalAlign=middle;resizable=0;points=[];autosize=1;strokeColor=none;fillColor=none;fontSize=12;" parent="1" vertex="1">
                    <mxGeometry x="400" y="765" width="80" height="30" as="geometry"/>
                </mxCell>
                <mxCell id="39" value="id_ouvrage" style="text;html=1;align=center;verticalAlign=middle;resizable=0;points=[];autosize=1;strokeColor=none;fillColor=none;fontSize=12;" parent="1" vertex="1">
                    <mxGeometry x="495" y="765" width="80" height="30" as="geometry"/>
                </mxCell>
                <mxCell id="41" value="titre" style="text;html=1;align=center;verticalAlign=middle;resizable=0;points=[];autosize=1;strokeColor=none;fillColor=none;fontSize=12;" parent="1" vertex="1">
                    <mxGeometry x="520" y="845" width="40" height="30" as="geometry"/>
                </mxCell>
                <mxCell id="42" value="nbre_page" style="text;html=1;align=center;verticalAlign=middle;resizable=0;points=[];autosize=1;strokeColor=none;fillColor=none;fontSize=12;" parent="1" vertex="1">
                    <mxGeometry x="425" y="845" width="80" height="30" as="geometry"/>
                </mxCell>
                <mxCell id="43" value="" style="endArrow=classic;html=1;fontSize=12;exitX=0.416;exitY=0.999;exitDx=0;exitDy=0;exitPerimeter=0;" parent="1" source="39" target="42" edge="1">
                    <mxGeometry width="50" height="50" relative="1" as="geometry">
                        <mxPoint x="390" y="840" as="sourcePoint"/>
                        <mxPoint x="440" y="790" as="targetPoint"/>
                    </mxGeometry>
                </mxCell>
                <mxCell id="44" value="" style="endArrow=classic;html=1;fontSize=12;exitX=0.723;exitY=1.115;exitDx=0;exitDy=0;exitPerimeter=0;entryX=0.488;entryY=-0.001;entryDx=0;entryDy=0;entryPerimeter=0;" parent="1" source="39" target="41" edge="1">
                    <mxGeometry width="50" height="50" relative="1" as="geometry">
                        <mxPoint x="390" y="840" as="sourcePoint"/>
                        <mxPoint x="551" y="840" as="targetPoint"/>
                    </mxGeometry>
                </mxCell>
                <mxCell id="45" value="" style="endArrow=classic;html=1;fontSize=12;" parent="1" target="46" edge="1">
                    <mxGeometry width="50" height="50" relative="1" as="geometry">
                        <mxPoint x="560" y="795" as="sourcePoint"/>
                        <mxPoint x="600" y="835" as="targetPoint"/>
                    </mxGeometry>
                </mxCell>
                <mxCell id="46" value="id_auteur" style="text;html=1;align=center;verticalAlign=middle;resizable=0;points=[];autosize=1;strokeColor=none;fillColor=none;fontSize=12;" parent="1" vertex="1">
                    <mxGeometry x="590" y="845" width="70" height="30" as="geometry"/>
                </mxCell>
                <mxCell id="47" value="nom_auteur" style="text;html=1;align=center;verticalAlign=middle;resizable=0;points=[];autosize=1;strokeColor=none;fillColor=none;fontSize=12;" parent="1" vertex="1">
                    <mxGeometry x="505" y="920" width="90" height="30" as="geometry"/>
                </mxCell>
                <mxCell id="48" value="prenom_auteur" style="text;html=1;align=center;verticalAlign=middle;resizable=0;points=[];autosize=1;strokeColor=none;fillColor=none;fontSize=12;" parent="1" vertex="1">
                    <mxGeometry x="640" y="920" width="100" height="30" as="geometry"/>
                </mxCell>
                <mxCell id="49" value="" style="endArrow=classic;html=1;fontSize=12;exitX=0.42;exitY=1.134;exitDx=0;exitDy=0;exitPerimeter=0;" parent="1" source="46" target="47" edge="1">
                    <mxGeometry width="50" height="50" relative="1" as="geometry">
                        <mxPoint x="460" y="820" as="sourcePoint"/>
                        <mxPoint x="510" y="770" as="targetPoint"/>
                    </mxGeometry>
                </mxCell>
                <mxCell id="50" value="" style="endArrow=classic;html=1;fontSize=12;exitX=0.608;exitY=1.134;exitDx=0;exitDy=0;exitPerimeter=0;entryX=0.4;entryY=0;entryDx=0;entryDy=0;entryPerimeter=0;" parent="1" source="46" target="48" edge="1">
                    <mxGeometry width="50" height="50" relative="1" as="geometry">
                        <mxPoint x="460" y="820" as="sourcePoint"/>
                        <mxPoint x="510" y="770" as="targetPoint"/>
                    </mxGeometry>
                </mxCell>
                <mxCell id="51" value="OUVRAGE" style="swimlane;whiteSpace=wrap;html=1;" parent="1" vertex="1">
                    <mxGeometry x="245" y="1080" width="160" height="200" as="geometry"/>
                </mxCell>
                <mxCell id="52" value="&lt;u&gt;id_ouvrage&lt;/u&gt;" style="text;html=1;align=center;verticalAlign=middle;resizable=0;points=[];autosize=1;strokeColor=none;fillColor=none;" parent="51" vertex="1">
                    <mxGeometry x="40" y="30" width="80" height="30" as="geometry"/>
                </mxCell>
                <mxCell id="53" value="Nbre_page" style="text;html=1;align=center;verticalAlign=middle;resizable=0;points=[];autosize=1;strokeColor=none;fillColor=none;" parent="51" vertex="1">
                    <mxGeometry x="40" y="100" width="80" height="30" as="geometry"/>
                </mxCell>
                <mxCell id="66" value="titre" style="text;html=1;align=center;verticalAlign=middle;resizable=0;points=[];autosize=1;strokeColor=none;fillColor=none;fontSize=12;" parent="51" vertex="1">
                    <mxGeometry x="60" y="70" width="40" height="30" as="geometry"/>
                </mxCell>
                <mxCell id="228" value="#id_motCle" style="text;html=1;align=center;verticalAlign=middle;resizable=0;points=[];autosize=1;strokeColor=none;fillColor=none;fontSize=12;" parent="51" vertex="1">
                    <mxGeometry x="40" y="140" width="80" height="30" as="geometry"/>
                </mxCell>
                <mxCell id="54" value="ADHERENT" style="swimlane;whiteSpace=wrap;html=1;" parent="1" vertex="1">
                    <mxGeometry x="670" y="1080" width="160" height="200" as="geometry"/>
                </mxCell>
                <mxCell id="55" value="id_adherent" style="text;html=1;align=center;verticalAlign=middle;resizable=0;points=[];autosize=1;strokeColor=none;fillColor=none;" parent="54" vertex="1">
                    <mxGeometry x="35" y="40" width="90" height="30" as="geometry"/>
                </mxCell>
                <mxCell id="56" value="nom_adherent" style="text;html=1;align=center;verticalAlign=middle;resizable=0;points=[];autosize=1;strokeColor=none;fillColor=none;" parent="54" vertex="1">
                    <mxGeometry x="30" y="70" width="100" height="30" as="geometry"/>
                </mxCell>
                <mxCell id="57" value="adresse" style="text;html=1;align=center;verticalAlign=middle;resizable=0;points=[];autosize=1;strokeColor=none;fillColor=none;" parent="54" vertex="1">
                    <mxGeometry x="45" y="100" width="70" height="30" as="geometry"/>
                </mxCell>
                <mxCell id="65" value="telephone" style="text;html=1;align=center;verticalAlign=middle;resizable=0;points=[];autosize=1;strokeColor=none;fillColor=none;fontSize=12;" parent="54" vertex="1">
                    <mxGeometry x="40" y="130" width="80" height="30" as="geometry"/>
                </mxCell>
                <mxCell id="58" value="ECRIRE" style="swimlane;whiteSpace=wrap;html=1;fontSize=12;" parent="1" vertex="1">
                    <mxGeometry x="245" y="1390" width="160" height="100" as="geometry"/>
                </mxCell>
                <mxCell id="61" value="#reference" style="text;html=1;align=center;verticalAlign=middle;resizable=0;points=[];autosize=1;strokeColor=none;fillColor=none;fontSize=12;" parent="58" vertex="1">
                    <mxGeometry x="40" y="25" width="80" height="30" as="geometry"/>
                </mxCell>
                <mxCell id="62" value="#id_auteur" style="text;html=1;align=center;verticalAlign=middle;resizable=0;points=[];autosize=1;strokeColor=none;fillColor=none;fontSize=12;" parent="58" vertex="1">
                    <mxGeometry x="40" y="55" width="80" height="30" as="geometry"/>
                </mxCell>
                <mxCell id="59" value="EMPRUNTER" style="swimlane;whiteSpace=wrap;html=1;fontSize=12;" parent="1" vertex="1">
                    <mxGeometry x="470" y="1130" width="160" height="100" as="geometry"/>
                </mxCell>
                <mxCell id="63" value="#reference" style="text;html=1;align=center;verticalAlign=middle;resizable=0;points=[];autosize=1;strokeColor=none;fillColor=none;fontSize=12;" parent="59" vertex="1">
                    <mxGeometry x="40" y="30" width="80" height="30" as="geometry"/>
                </mxCell>
                <mxCell id="64" value="#id_adherent" style="text;html=1;align=center;verticalAlign=middle;resizable=0;points=[];autosize=1;strokeColor=none;fillColor=none;fontSize=12;" parent="59" vertex="1">
                    <mxGeometry x="35" y="60" width="90" height="30" as="geometry"/>
                </mxCell>
                <mxCell id="69" value="" style="endArrow=none;html=1;fontSize=12;entryX=0.5;entryY=1;entryDx=0;entryDy=0;exitX=0.5;exitY=0;exitDx=0;exitDy=0;" parent="1" source="58" target="51" edge="1">
                    <mxGeometry width="50" height="50" relative="1" as="geometry">
                        <mxPoint x="450" y="1340" as="sourcePoint"/>
                        <mxPoint x="500" y="1290" as="targetPoint"/>
                    </mxGeometry>
                </mxCell>
                <mxCell id="71" value="" style="endArrow=classic;html=1;fontSize=12;entryX=0;entryY=0.5;entryDx=0;entryDy=0;exitX=1;exitY=0.5;exitDx=0;exitDy=0;" parent="1" source="51" target="59" edge="1">
                    <mxGeometry width="50" height="50" relative="1" as="geometry">
                        <mxPoint x="225" y="1205" as="sourcePoint"/>
                        <mxPoint x="275" y="1155" as="targetPoint"/>
                    </mxGeometry>
                </mxCell>
                <mxCell id="72" value="" style="endArrow=classic;html=1;fontSize=12;entryX=1;entryY=0.5;entryDx=0;entryDy=0;exitX=0;exitY=0.5;exitDx=0;exitDy=0;" parent="1" source="54" target="59" edge="1">
                    <mxGeometry width="50" height="50" relative="1" as="geometry">
                        <mxPoint x="450" y="1300" as="sourcePoint"/>
                        <mxPoint x="500" y="1250" as="targetPoint"/>
                    </mxGeometry>
                </mxCell>
                <mxCell id="73" value="AUTEUR" style="swimlane;whiteSpace=wrap;html=1;" parent="1" vertex="1">
                    <mxGeometry x="620" y="1340" width="160" height="200" as="geometry"/>
                </mxCell>
                <mxCell id="74" value="id_auteur&amp;nbsp;" style="text;html=1;align=center;verticalAlign=middle;resizable=0;points=[];autosize=1;strokeColor=none;fillColor=none;" parent="73" vertex="1">
                    <mxGeometry x="40" y="40" width="80" height="30" as="geometry"/>
                </mxCell>
                <mxCell id="75" value="nom_auteur" style="text;html=1;align=center;verticalAlign=middle;resizable=0;points=[];autosize=1;strokeColor=none;fillColor=none;" parent="73" vertex="1">
                    <mxGeometry x="35" y="70" width="90" height="30" as="geometry"/>
                </mxCell>
                <mxCell id="76" value="prenom" style="text;html=1;align=center;verticalAlign=middle;resizable=0;points=[];autosize=1;strokeColor=none;fillColor=none;" parent="73" vertex="1">
                    <mxGeometry x="50" y="100" width="60" height="30" as="geometry"/>
                </mxCell>
                <mxCell id="77" value="" style="endArrow=classic;html=1;fontSize=12;entryX=1;entryY=0.5;entryDx=0;entryDy=0;exitX=0;exitY=0.5;exitDx=0;exitDy=0;" parent="1" source="73" target="58" edge="1">
                    <mxGeometry width="50" height="50" relative="1" as="geometry">
                        <mxPoint x="450" y="1510" as="sourcePoint"/>
                        <mxPoint x="500" y="1460" as="targetPoint"/>
                    </mxGeometry>
                </mxCell>
                <mxCell id="80" value="&lt;font style=&quot;font-size: 14px;&quot;&gt;&lt;u&gt;&lt;b&gt;modèle Logique de données&lt;/b&gt;&lt;/u&gt;&lt;/font&gt;" style="text;html=1;align=center;verticalAlign=middle;resizable=0;points=[];autosize=1;strokeColor=none;fillColor=none;fontSize=12;" parent="1" vertex="1">
                    <mxGeometry x="315" y="1000" width="210" height="30" as="geometry"/>
                </mxCell>
                <mxCell id="81" value="&lt;u&gt;&lt;b&gt;2ème cas&lt;/b&gt;&lt;/u&gt;" style="text;html=1;align=center;verticalAlign=middle;resizable=0;points=[];autosize=1;strokeColor=none;fillColor=none;fontSize=14;" parent="1" vertex="1">
                    <mxGeometry x="30" y="1520" width="90" height="30" as="geometry"/>
                </mxCell>
                <mxCell id="82" value="OUVRAGE" style="swimlane;whiteSpace=wrap;html=1;" parent="1" vertex="1">
                    <mxGeometry x="220" y="1600" width="160" height="200" as="geometry"/>
                </mxCell>
                <mxCell id="83" value="&lt;u&gt;id_ouvrage&lt;/u&gt;" style="text;html=1;align=center;verticalAlign=middle;resizable=0;points=[];autosize=1;strokeColor=none;fillColor=none;" parent="82" vertex="1">
                    <mxGeometry x="40" y="30" width="80" height="30" as="geometry"/>
                </mxCell>
                <mxCell id="84" value="Nbre_page" style="text;html=1;align=center;verticalAlign=middle;resizable=0;points=[];autosize=1;strokeColor=none;fillColor=none;" parent="82" vertex="1">
                    <mxGeometry x="40" y="115" width="80" height="30" as="geometry"/>
                </mxCell>
                <mxCell id="85" value="&lt;font style=&quot;font-size: 12px;&quot;&gt;titre&lt;/font&gt;" style="text;html=1;align=center;verticalAlign=middle;resizable=0;points=[];autosize=1;strokeColor=none;fillColor=none;fontSize=14;" parent="82" vertex="1">
                    <mxGeometry x="60" y="70" width="40" height="30" as="geometry"/>
                </mxCell>
                <mxCell id="525" value="nbre_exemplaire" style="text;html=1;align=center;verticalAlign=middle;resizable=0;points=[];autosize=1;strokeColor=none;fillColor=none;" parent="82" vertex="1">
                    <mxGeometry x="25" y="155" width="110" height="30" as="geometry"/>
                </mxCell>
                <mxCell id="87" value="ADHERENT" style="swimlane;whiteSpace=wrap;html=1;" parent="1" vertex="1">
                    <mxGeometry x="670" y="1970" width="160" height="200" as="geometry"/>
                </mxCell>
                <mxCell id="88" value="&lt;u&gt;id_adherent&lt;/u&gt;" style="text;html=1;align=center;verticalAlign=middle;resizable=0;points=[];autosize=1;strokeColor=none;fillColor=none;" parent="87" vertex="1">
                    <mxGeometry x="35" y="40" width="90" height="30" as="geometry"/>
                </mxCell>
                <mxCell id="89" value="nom_adherent" style="text;html=1;align=center;verticalAlign=middle;resizable=0;points=[];autosize=1;strokeColor=none;fillColor=none;" parent="87" vertex="1">
                    <mxGeometry x="30" y="70" width="100" height="30" as="geometry"/>
                </mxCell>
                <mxCell id="90" value="adresse" style="text;html=1;align=center;verticalAlign=middle;resizable=0;points=[];autosize=1;strokeColor=none;fillColor=none;" parent="87" vertex="1">
                    <mxGeometry x="45" y="100" width="70" height="30" as="geometry"/>
                </mxCell>
                <mxCell id="93" value="AUTEUR" style="swimlane;whiteSpace=wrap;html=1;" parent="1" vertex="1">
                    <mxGeometry x="660" y="1600" width="160" height="200" as="geometry"/>
                </mxCell>
                <mxCell id="94" value="&lt;u&gt;id_auteur&amp;nbsp;&lt;/u&gt;" style="text;html=1;align=center;verticalAlign=middle;resizable=0;points=[];autosize=1;strokeColor=none;fillColor=none;" parent="93" vertex="1">
                    <mxGeometry x="40" y="40" width="80" height="30" as="geometry"/>
                </mxCell>
                <mxCell id="95" value="nom_auteur" style="text;html=1;align=center;verticalAlign=middle;resizable=0;points=[];autosize=1;strokeColor=none;fillColor=none;" parent="93" vertex="1">
                    <mxGeometry x="35" y="70" width="90" height="30" as="geometry"/>
                </mxCell>
                <mxCell id="96" value="prenom" style="text;html=1;align=center;verticalAlign=middle;resizable=0;points=[];autosize=1;strokeColor=none;fillColor=none;" parent="93" vertex="1">
                    <mxGeometry x="50" y="100" width="60" height="30" as="geometry"/>
                </mxCell>
                <mxCell id="97" value="ECRIRE" style="ellipse;whiteSpace=wrap;html=1;" parent="1" vertex="1">
                    <mxGeometry x="465" y="1660" width="120" height="80" as="geometry"/>
                </mxCell>
                <mxCell id="98" value="" style="endArrow=none;html=1;fontSize=12;entryX=0;entryY=0.5;entryDx=0;entryDy=0;exitX=1;exitY=0.5;exitDx=0;exitDy=0;" parent="1" source="97" target="93" edge="1">
                    <mxGeometry width="50" height="50" relative="1" as="geometry">
                        <mxPoint x="430" y="2190" as="sourcePoint"/>
                        <mxPoint x="480" y="2140" as="targetPoint"/>
                    </mxGeometry>
                </mxCell>
                <mxCell id="100" value="&lt;font style=&quot;font-size: 14px;&quot;&gt;&lt;u&gt;&lt;b&gt;Graphe de dépendances fonctionnaires&lt;/b&gt;&lt;/u&gt;&lt;/font&gt;" style="text;html=1;align=center;verticalAlign=middle;resizable=0;points=[];autosize=1;strokeColor=none;fillColor=none;fontSize=12;" parent="1" vertex="1">
                    <mxGeometry x="205" y="2320" width="290" height="30" as="geometry"/>
                </mxCell>
                <mxCell id="101" value="id_adherent" style="text;html=1;align=center;verticalAlign=middle;resizable=0;points=[];autosize=1;strokeColor=none;fillColor=none;fontSize=12;" parent="1" vertex="1">
                    <mxGeometry x="215" y="2400" width="90" height="30" as="geometry"/>
                </mxCell>
                <mxCell id="102" value="" style="endArrow=classic;html=1;fontSize=12;" parent="1" edge="1">
                    <mxGeometry width="50" height="50" relative="1" as="geometry">
                        <mxPoint x="220" y="2430" as="sourcePoint"/>
                        <mxPoint x="140" y="2510" as="targetPoint"/>
                    </mxGeometry>
                </mxCell>
                <mxCell id="103" value="" style="endArrow=classic;html=1;fontSize=12;" parent="1" edge="1">
                    <mxGeometry width="50" height="50" relative="1" as="geometry">
                        <mxPoint x="260" y="2430" as="sourcePoint"/>
                        <mxPoint x="220" y="2510" as="targetPoint"/>
                    </mxGeometry>
                </mxCell>
                <mxCell id="104" value="" style="endArrow=classic;html=1;fontSize=12;" parent="1" edge="1">
                    <mxGeometry width="50" height="50" relative="1" as="geometry">
                        <mxPoint x="280" y="2430" as="sourcePoint"/>
                        <mxPoint x="300" y="2510" as="targetPoint"/>
                    </mxGeometry>
                </mxCell>
                <mxCell id="105" value="" style="endArrow=classic;html=1;fontSize=12;" parent="1" edge="1">
                    <mxGeometry width="50" height="50" relative="1" as="geometry">
                        <mxPoint x="300" y="2430" as="sourcePoint"/>
                        <mxPoint x="380" y="2510" as="targetPoint"/>
                    </mxGeometry>
                </mxCell>
                <mxCell id="106" value="adresse" style="text;html=1;align=center;verticalAlign=middle;resizable=0;points=[];autosize=1;strokeColor=none;fillColor=none;fontSize=12;" parent="1" vertex="1">
                    <mxGeometry x="185" y="2515" width="70" height="30" as="geometry"/>
                </mxCell>
                <mxCell id="107" value="telephone" style="text;html=1;align=center;verticalAlign=middle;resizable=0;points=[];autosize=1;strokeColor=none;fillColor=none;fontSize=12;" parent="1" vertex="1">
                    <mxGeometry x="260" y="2515" width="80" height="30" as="geometry"/>
                </mxCell>
                <mxCell id="108" value="reference" style="text;html=1;align=center;verticalAlign=middle;resizable=0;points=[];autosize=1;strokeColor=none;fillColor=none;fontSize=12;" parent="1" vertex="1">
                    <mxGeometry x="360" y="2515" width="70" height="30" as="geometry"/>
                </mxCell>
                <mxCell id="109" value="titre" style="text;html=1;align=center;verticalAlign=middle;resizable=0;points=[];autosize=1;strokeColor=none;fillColor=none;fontSize=12;" parent="1" vertex="1">
                    <mxGeometry x="390" y="2595" width="40" height="30" as="geometry"/>
                </mxCell>
                <mxCell id="110" value="nbre_page" style="text;html=1;align=center;verticalAlign=middle;resizable=0;points=[];autosize=1;strokeColor=none;fillColor=none;fontSize=12;" parent="1" vertex="1">
                    <mxGeometry x="285" y="2595" width="80" height="30" as="geometry"/>
                </mxCell>
                <mxCell id="111" value="" style="endArrow=classic;html=1;fontSize=12;exitX=0.416;exitY=0.999;exitDx=0;exitDy=0;exitPerimeter=0;" parent="1" source="108" target="110" edge="1">
                    <mxGeometry width="50" height="50" relative="1" as="geometry">
                        <mxPoint x="250" y="2590" as="sourcePoint"/>
                        <mxPoint x="300" y="2540" as="targetPoint"/>
                    </mxGeometry>
                </mxCell>
                <mxCell id="112" value="" style="endArrow=classic;html=1;fontSize=12;exitX=0.723;exitY=1.115;exitDx=0;exitDy=0;exitPerimeter=0;" parent="1" source="108" edge="1">
                    <mxGeometry width="50" height="50" relative="1" as="geometry">
                        <mxPoint x="250" y="2590" as="sourcePoint"/>
                        <mxPoint x="411" y="2590" as="targetPoint"/>
                    </mxGeometry>
                </mxCell>
                <mxCell id="113" value="" style="endArrow=classic;html=1;fontSize=12;" parent="1" edge="1">
                    <mxGeometry width="50" height="50" relative="1" as="geometry">
                        <mxPoint x="420" y="2540" as="sourcePoint"/>
                        <mxPoint x="470" y="2590" as="targetPoint"/>
                    </mxGeometry>
                </mxCell>
                <mxCell id="114" value="id_auteur" style="text;html=1;align=center;verticalAlign=middle;resizable=0;points=[];autosize=1;strokeColor=none;fillColor=none;fontSize=12;" parent="1" vertex="1">
                    <mxGeometry x="450" y="2595" width="70" height="30" as="geometry"/>
                </mxCell>
                <mxCell id="115" value="nom_auteur" style="text;html=1;align=center;verticalAlign=middle;resizable=0;points=[];autosize=1;strokeColor=none;fillColor=none;fontSize=12;" parent="1" vertex="1">
                    <mxGeometry x="365" y="2670" width="90" height="30" as="geometry"/>
                </mxCell>
                <mxCell id="116" value="prenom_auteur" style="text;html=1;align=center;verticalAlign=middle;resizable=0;points=[];autosize=1;strokeColor=none;fillColor=none;fontSize=12;" parent="1" vertex="1">
                    <mxGeometry x="500" y="2670" width="100" height="30" as="geometry"/>
                </mxCell>
                <mxCell id="117" value="" style="endArrow=classic;html=1;fontSize=12;exitX=0.42;exitY=1.134;exitDx=0;exitDy=0;exitPerimeter=0;" parent="1" source="114" target="115" edge="1">
                    <mxGeometry width="50" height="50" relative="1" as="geometry">
                        <mxPoint x="320" y="2570" as="sourcePoint"/>
                        <mxPoint x="370" y="2520" as="targetPoint"/>
                    </mxGeometry>
                </mxCell>
                <mxCell id="118" value="" style="endArrow=classic;html=1;fontSize=12;exitX=0.608;exitY=1.134;exitDx=0;exitDy=0;exitPerimeter=0;entryX=0.4;entryY=0;entryDx=0;entryDy=0;entryPerimeter=0;" parent="1" source="114" target="116" edge="1">
                    <mxGeometry width="50" height="50" relative="1" as="geometry">
                        <mxPoint x="320" y="2570" as="sourcePoint"/>
                        <mxPoint x="370" y="2520" as="targetPoint"/>
                    </mxGeometry>
                </mxCell>
                <mxCell id="142" value="&lt;b&gt;&lt;u&gt;Modèle Logique de données&lt;/u&gt;&lt;/b&gt;" style="text;html=1;align=center;verticalAlign=middle;resizable=0;points=[];autosize=1;strokeColor=none;fillColor=none;fontSize=14;" parent="1" vertex="1">
                    <mxGeometry x="270" y="2775" width="210" height="30" as="geometry"/>
                </mxCell>
                <mxCell id="166" value="OUVRAGE" style="swimlane;whiteSpace=wrap;html=1;" parent="1" vertex="1">
                    <mxGeometry x="200" y="2850" width="160" height="200" as="geometry"/>
                </mxCell>
                <mxCell id="167" value="&lt;u&gt;id_ouvrage&lt;/u&gt;" style="text;html=1;align=center;verticalAlign=middle;resizable=0;points=[];autosize=1;strokeColor=none;fillColor=none;" parent="166" vertex="1">
                    <mxGeometry x="40" y="30" width="80" height="30" as="geometry"/>
                </mxCell>
                <mxCell id="168" value="Nbre_page" style="text;html=1;align=center;verticalAlign=middle;resizable=0;points=[];autosize=1;strokeColor=none;fillColor=none;" parent="166" vertex="1">
                    <mxGeometry x="40" y="115" width="80" height="30" as="geometry"/>
                </mxCell>
                <mxCell id="169" value="titre" style="text;html=1;align=center;verticalAlign=middle;resizable=0;points=[];autosize=1;strokeColor=none;fillColor=none;fontSize=12;" parent="166" vertex="1">
                    <mxGeometry x="60" y="70" width="40" height="30" as="geometry"/>
                </mxCell>
                <mxCell id="251" value="#id_motCle" style="text;html=1;align=center;verticalAlign=middle;resizable=0;points=[];autosize=1;strokeColor=none;fillColor=none;fontSize=12;" parent="166" vertex="1">
                    <mxGeometry x="40" y="150" width="80" height="30" as="geometry"/>
                </mxCell>
                <mxCell id="170" value="ADHERENT" style="swimlane;whiteSpace=wrap;html=1;" parent="1" vertex="1">
                    <mxGeometry x="660" y="2850" width="160" height="200" as="geometry"/>
                </mxCell>
                <mxCell id="171" value="&lt;u&gt;id_adherent&lt;/u&gt;" style="text;html=1;align=center;verticalAlign=middle;resizable=0;points=[];autosize=1;strokeColor=none;fillColor=none;" parent="170" vertex="1">
                    <mxGeometry x="35" y="40" width="90" height="30" as="geometry"/>
                </mxCell>
                <mxCell id="172" value="nom_adherent" style="text;html=1;align=center;verticalAlign=middle;resizable=0;points=[];autosize=1;strokeColor=none;fillColor=none;" parent="170" vertex="1">
                    <mxGeometry x="30" y="70" width="100" height="30" as="geometry"/>
                </mxCell>
                <mxCell id="173" value="adresse" style="text;html=1;align=center;verticalAlign=middle;resizable=0;points=[];autosize=1;strokeColor=none;fillColor=none;" parent="170" vertex="1">
                    <mxGeometry x="45" y="100" width="70" height="30" as="geometry"/>
                </mxCell>
                <mxCell id="174" value="telephone" style="text;html=1;align=center;verticalAlign=middle;resizable=0;points=[];autosize=1;strokeColor=none;fillColor=none;fontSize=12;" parent="170" vertex="1">
                    <mxGeometry x="40" y="130" width="80" height="30" as="geometry"/>
                </mxCell>
                <mxCell id="175" value="ECRIRE" style="swimlane;whiteSpace=wrap;html=1;fontSize=12;" parent="1" vertex="1">
                    <mxGeometry x="200" y="3110" width="160" height="100" as="geometry"/>
                </mxCell>
                <mxCell id="176" value="#id_ouvrage" style="text;html=1;align=center;verticalAlign=middle;resizable=0;points=[];autosize=1;strokeColor=none;fillColor=none;fontSize=12;" parent="175" vertex="1">
                    <mxGeometry x="35" y="25" width="90" height="30" as="geometry"/>
                </mxCell>
                <mxCell id="177" value="#id_auteur" style="text;html=1;align=center;verticalAlign=middle;resizable=0;points=[];autosize=1;strokeColor=none;fillColor=none;fontSize=12;" parent="175" vertex="1">
                    <mxGeometry x="40" y="55" width="80" height="30" as="geometry"/>
                </mxCell>
                <mxCell id="178" value="EMPRUNTER" style="swimlane;whiteSpace=wrap;html=1;fontSize=12;" parent="1" vertex="1">
                    <mxGeometry x="435" y="2850" width="160" height="200" as="geometry"/>
                </mxCell>
                <mxCell id="179" value="#reference" style="text;html=1;align=center;verticalAlign=middle;resizable=0;points=[];autosize=1;strokeColor=none;fillColor=none;fontSize=12;" parent="178" vertex="1">
                    <mxGeometry x="40" y="30" width="80" height="30" as="geometry"/>
                </mxCell>
                <mxCell id="180" value="#id_adherent" style="text;html=1;align=center;verticalAlign=middle;resizable=0;points=[];autosize=1;strokeColor=none;fillColor=none;fontSize=12;" parent="178" vertex="1">
                    <mxGeometry x="35" y="60" width="90" height="30" as="geometry"/>
                </mxCell>
                <mxCell id="190" value="date_debut" style="text;html=1;align=center;verticalAlign=middle;resizable=0;points=[];autosize=1;strokeColor=none;fillColor=none;fontSize=14;" parent="178" vertex="1">
                    <mxGeometry x="35" y="90" width="90" height="30" as="geometry"/>
                </mxCell>
                <mxCell id="191" value="delai" style="text;html=1;align=center;verticalAlign=middle;resizable=0;points=[];autosize=1;strokeColor=none;fillColor=none;fontSize=14;" parent="178" vertex="1">
                    <mxGeometry x="55" y="120" width="50" height="30" as="geometry"/>
                </mxCell>
                <mxCell id="182" value="" style="endArrow=classic;html=1;fontSize=12;entryX=0;entryY=0.5;entryDx=0;entryDy=0;exitX=1;exitY=0.5;exitDx=0;exitDy=0;" parent="1" source="166" target="178" edge="1">
                    <mxGeometry width="50" height="50" relative="1" as="geometry">
                        <mxPoint x="265" y="2975" as="sourcePoint"/>
                        <mxPoint x="315" y="2925" as="targetPoint"/>
                    </mxGeometry>
                </mxCell>
                <mxCell id="183" value="" style="endArrow=classic;html=1;fontSize=12;entryX=1;entryY=0.5;entryDx=0;entryDy=0;exitX=0;exitY=0.5;exitDx=0;exitDy=0;" parent="1" source="170" target="178" edge="1">
                    <mxGeometry width="50" height="50" relative="1" as="geometry">
                        <mxPoint x="490" y="3070" as="sourcePoint"/>
                        <mxPoint x="540" y="3020" as="targetPoint"/>
                    </mxGeometry>
                </mxCell>
                <mxCell id="184" value="AUTEUR" style="swimlane;whiteSpace=wrap;html=1;" parent="1" vertex="1">
                    <mxGeometry x="440" y="3085" width="160" height="150" as="geometry"/>
                </mxCell>
                <mxCell id="185" value="&lt;u&gt;id_auteur&amp;nbsp;&lt;/u&gt;" style="text;html=1;align=center;verticalAlign=middle;resizable=0;points=[];autosize=1;strokeColor=none;fillColor=none;" parent="184" vertex="1">
                    <mxGeometry x="40" y="40" width="80" height="30" as="geometry"/>
                </mxCell>
                <mxCell id="186" value="nom_auteur" style="text;html=1;align=center;verticalAlign=middle;resizable=0;points=[];autosize=1;strokeColor=none;fillColor=none;" parent="184" vertex="1">
                    <mxGeometry x="35" y="70" width="90" height="30" as="geometry"/>
                </mxCell>
                <mxCell id="187" value="prenom" style="text;html=1;align=center;verticalAlign=middle;resizable=0;points=[];autosize=1;strokeColor=none;fillColor=none;" parent="184" vertex="1">
                    <mxGeometry x="50" y="100" width="60" height="30" as="geometry"/>
                </mxCell>
                <mxCell id="188" value="" style="endArrow=classic;html=1;fontSize=12;entryX=1;entryY=0.5;entryDx=0;entryDy=0;exitX=0;exitY=0.5;exitDx=0;exitDy=0;" parent="1" source="184" target="175" edge="1">
                    <mxGeometry width="50" height="50" relative="1" as="geometry">
                        <mxPoint x="490" y="3280" as="sourcePoint"/>
                        <mxPoint x="540" y="3230" as="targetPoint"/>
                    </mxGeometry>
                </mxCell>
                <mxCell id="194" value="Emprunt" style="swimlane;whiteSpace=wrap;html=1;fontSize=14;direction=east;" parent="1" vertex="1">
                    <mxGeometry x="220" y="1980" width="160" height="200" as="geometry"/>
                </mxCell>
                <mxCell id="203" value="&lt;u&gt;id_emprunt&lt;/u&gt;" style="text;html=1;align=center;verticalAlign=middle;resizable=0;points=[];autosize=1;strokeColor=none;fillColor=none;fontSize=14;" parent="194" vertex="1">
                    <mxGeometry x="40" y="40" width="90" height="30" as="geometry"/>
                </mxCell>
                <mxCell id="204" value="date_emprunt" style="text;html=1;align=center;verticalAlign=middle;resizable=0;points=[];autosize=1;strokeColor=none;fillColor=none;fontSize=14;" parent="194" vertex="1">
                    <mxGeometry x="30" y="80" width="110" height="30" as="geometry"/>
                </mxCell>
                <mxCell id="231" value="delai" style="text;html=1;align=center;verticalAlign=middle;resizable=0;points=[];autosize=1;strokeColor=none;fillColor=none;fontSize=12;" parent="194" vertex="1">
                    <mxGeometry x="55" y="120" width="50" height="30" as="geometry"/>
                </mxCell>
                <mxCell id="195" value="FAIRE" style="ellipse;whiteSpace=wrap;html=1;fontSize=14;" parent="1" vertex="1">
                    <mxGeometry x="240" y="1840" width="120" height="80" as="geometry"/>
                </mxCell>
                <mxCell id="201" value="POUVOIR" style="ellipse;whiteSpace=wrap;html=1;fontSize=14;" parent="1" vertex="1">
                    <mxGeometry x="465" y="2040" width="120" height="80" as="geometry"/>
                </mxCell>
                <mxCell id="207" value="" style="endArrow=none;html=1;fontSize=14;entryX=0.25;entryY=0.667;entryDx=0;entryDy=0;entryPerimeter=0;exitX=0;exitY=0.5;exitDx=0;exitDy=0;" parent="1" source="10" target="21" edge="1">
                    <mxGeometry width="50" height="50" relative="1" as="geometry">
                        <mxPoint x="340" y="140" as="sourcePoint"/>
                        <mxPoint x="390" y="90" as="targetPoint"/>
                    </mxGeometry>
                </mxCell>
                <mxCell id="21" value="1,1" style="text;html=1;align=center;verticalAlign=middle;resizable=0;points=[];autosize=1;strokeColor=none;fillColor=none;" parent="1" vertex="1">
                    <mxGeometry x="430" y="150" width="40" height="30" as="geometry"/>
                </mxCell>
                <mxCell id="208" value="Mot_clé" style="swimlane;whiteSpace=wrap;html=1;fontSize=14;" parent="1" vertex="1">
                    <mxGeometry y="305" width="160" height="120" as="geometry">
                        <mxRectangle y="305" width="90" height="30" as="alternateBounds"/>
                    </mxGeometry>
                </mxCell>
                <mxCell id="215" value="id_motCle" style="text;html=1;align=center;verticalAlign=middle;resizable=0;points=[];autosize=1;strokeColor=none;fillColor=none;fontSize=14;" parent="208" vertex="1">
                    <mxGeometry x="35" y="25" width="90" height="30" as="geometry"/>
                </mxCell>
                <mxCell id="216" value="libelle" style="text;html=1;align=center;verticalAlign=middle;resizable=0;points=[];autosize=1;strokeColor=none;fillColor=none;fontSize=14;" parent="208" vertex="1">
                    <mxGeometry x="50" y="65" width="60" height="30" as="geometry"/>
                </mxCell>
                <mxCell id="209" value="REFERENCER" style="ellipse;whiteSpace=wrap;html=1;fontSize=14;" parent="1" vertex="1">
                    <mxGeometry x="20" y="130" width="120" height="80" as="geometry"/>
                </mxCell>
                <mxCell id="210" value="" style="endArrow=none;html=1;fontSize=14;entryX=0.5;entryY=1;entryDx=0;entryDy=0;exitX=0.5;exitY=0;exitDx=0;exitDy=0;" parent="1" source="208" target="209" edge="1">
                    <mxGeometry width="50" height="50" relative="1" as="geometry">
                        <mxPoint x="350" y="210" as="sourcePoint"/>
                        <mxPoint x="400" y="160" as="targetPoint"/>
                    </mxGeometry>
                </mxCell>
                <mxCell id="213" value="" style="endArrow=none;html=1;fontSize=14;entryX=1;entryY=0.5;entryDx=0;entryDy=0;exitX=0;exitY=0.5;exitDx=0;exitDy=0;" parent="1" source="2" target="209" edge="1">
                    <mxGeometry width="50" height="50" relative="1" as="geometry">
                        <mxPoint x="350" y="210" as="sourcePoint"/>
                        <mxPoint x="400" y="160" as="targetPoint"/>
                    </mxGeometry>
                </mxCell>
                <mxCell id="217" value="1,N" style="text;html=1;align=center;verticalAlign=middle;resizable=0;points=[];autosize=1;strokeColor=none;fillColor=none;fontSize=14;" parent="1" vertex="1">
                    <mxGeometry x="80" y="275" width="50" height="30" as="geometry"/>
                </mxCell>
                <mxCell id="219" value="1,1" style="text;html=1;align=center;verticalAlign=middle;resizable=0;points=[];autosize=1;strokeColor=none;fillColor=none;fontSize=14;" parent="1" vertex="1">
                    <mxGeometry x="240" y="145" width="40" height="30" as="geometry"/>
                </mxCell>
                <mxCell id="220" value="" style="endArrow=classic;html=1;fontSize=14;exitX=0.99;exitY=0.884;exitDx=0;exitDy=0;exitPerimeter=0;" parent="1" source="39" target="221" edge="1">
                    <mxGeometry width="50" height="50" relative="1" as="geometry">
                        <mxPoint x="400" y="900" as="sourcePoint"/>
                        <mxPoint x="690" y="840" as="targetPoint"/>
                    </mxGeometry>
                </mxCell>
                <mxCell id="221" value="&lt;font style=&quot;font-size: 12px;&quot;&gt;id_motCle&lt;/font&gt;" style="text;html=1;align=center;verticalAlign=middle;resizable=0;points=[];autosize=1;strokeColor=none;fillColor=none;fontSize=14;" parent="1" vertex="1">
                    <mxGeometry x="670" y="845" width="80" height="30" as="geometry"/>
                </mxCell>
                <mxCell id="222" value="" style="endArrow=classic;html=1;fontSize=12;exitX=0.661;exitY=0.995;exitDx=0;exitDy=0;exitPerimeter=0;" parent="1" source="221" edge="1">
                    <mxGeometry width="50" height="50" relative="1" as="geometry">
                        <mxPoint x="400" y="900" as="sourcePoint"/>
                        <mxPoint x="760" y="900" as="targetPoint"/>
                    </mxGeometry>
                </mxCell>
                <mxCell id="223" value="libelle" style="text;html=1;align=center;verticalAlign=middle;resizable=0;points=[];autosize=1;strokeColor=none;fillColor=none;fontSize=12;" parent="1" vertex="1">
                    <mxGeometry x="750" y="910" width="50" height="30" as="geometry"/>
                </mxCell>
                <mxCell id="224" value="Mot_Cle" style="swimlane;whiteSpace=wrap;html=1;fontSize=12;" parent="1" vertex="1">
                    <mxGeometry x="15" y="1120" width="150" height="120" as="geometry"/>
                </mxCell>
                <mxCell id="226" value="&lt;u&gt;id_motCle&lt;/u&gt;" style="text;html=1;align=center;verticalAlign=middle;resizable=0;points=[];autosize=1;strokeColor=none;fillColor=none;fontSize=12;" parent="224" vertex="1">
                    <mxGeometry x="35" y="40" width="80" height="30" as="geometry"/>
                </mxCell>
                <mxCell id="227" value="libelle" style="text;html=1;align=center;verticalAlign=middle;resizable=0;points=[];autosize=1;strokeColor=none;fillColor=none;fontSize=12;" parent="224" vertex="1">
                    <mxGeometry x="50" y="75" width="50" height="30" as="geometry"/>
                </mxCell>
                <mxCell id="225" value="" style="endArrow=classic;html=1;fontSize=12;exitX=1;exitY=0.5;exitDx=0;exitDy=0;entryX=0;entryY=0.5;entryDx=0;entryDy=0;" parent="1" source="224" target="51" edge="1">
                    <mxGeometry width="50" height="50" relative="1" as="geometry">
                        <mxPoint x="310" y="1320" as="sourcePoint"/>
                        <mxPoint x="360" y="1270" as="targetPoint"/>
                    </mxGeometry>
                </mxCell>
                <mxCell id="229" value="Mot_Cle" style="swimlane;whiteSpace=wrap;html=1;fontSize=12;" parent="1" vertex="1">
                    <mxGeometry y="1830" width="160" height="120" as="geometry"/>
                </mxCell>
                <mxCell id="241" value="libelle" style="text;html=1;align=center;verticalAlign=middle;resizable=0;points=[];autosize=1;strokeColor=none;fillColor=none;fontSize=12;" parent="229" vertex="1">
                    <mxGeometry x="55" y="70" width="50" height="30" as="geometry"/>
                </mxCell>
                <mxCell id="230" value="REFERENCER" style="ellipse;whiteSpace=wrap;html=1;fontSize=12;" parent="1" vertex="1">
                    <mxGeometry x="20" y="1660" width="120" height="80" as="geometry"/>
                </mxCell>
                <mxCell id="233" value="" style="endArrow=none;html=1;fontSize=12;entryX=0.5;entryY=1;entryDx=0;entryDy=0;exitX=0.5;exitY=0;exitDx=0;exitDy=0;" parent="1" source="229" target="230" edge="1">
                    <mxGeometry width="50" height="50" relative="1" as="geometry">
                        <mxPoint x="390" y="1780" as="sourcePoint"/>
                        <mxPoint x="440" y="1730" as="targetPoint"/>
                    </mxGeometry>
                </mxCell>
                <mxCell id="234" value="" style="endArrow=none;html=1;fontSize=12;entryX=0;entryY=0.5;entryDx=0;entryDy=0;exitX=1;exitY=0.5;exitDx=0;exitDy=0;" parent="1" source="230" target="82" edge="1">
                    <mxGeometry width="50" height="50" relative="1" as="geometry">
                        <mxPoint x="390" y="1780" as="sourcePoint"/>
                        <mxPoint x="440" y="1730" as="targetPoint"/>
                    </mxGeometry>
                </mxCell>
                <mxCell id="235" value="" style="endArrow=none;html=1;fontSize=12;entryX=0.5;entryY=1;entryDx=0;entryDy=0;exitX=0.5;exitY=0;exitDx=0;exitDy=0;" parent="1" source="195" target="82" edge="1">
                    <mxGeometry width="50" height="50" relative="1" as="geometry">
                        <mxPoint x="390" y="1780" as="sourcePoint"/>
                        <mxPoint x="440" y="1730" as="targetPoint"/>
                    </mxGeometry>
                </mxCell>
                <mxCell id="240" value="&lt;u&gt;id_motCle&lt;/u&gt;" style="text;html=1;align=center;verticalAlign=middle;resizable=0;points=[];autosize=1;strokeColor=none;fillColor=none;fontSize=12;" parent="1" vertex="1">
                    <mxGeometry x="40" y="1865" width="80" height="30" as="geometry"/>
                </mxCell>
                <mxCell id="242" value="" style="endArrow=none;html=1;fontSize=12;entryX=1;entryY=0.5;entryDx=0;entryDy=0;exitX=0;exitY=0.5;exitDx=0;exitDy=0;" parent="1" source="97" target="82" edge="1">
                    <mxGeometry width="50" height="50" relative="1" as="geometry">
                        <mxPoint x="250" y="1820" as="sourcePoint"/>
                        <mxPoint x="300" y="1770" as="targetPoint"/>
                    </mxGeometry>
                </mxCell>
                <mxCell id="243" value="" style="endArrow=none;html=1;fontSize=12;entryX=0.5;entryY=1;entryDx=0;entryDy=0;exitX=0.5;exitY=0;exitDx=0;exitDy=0;" parent="1" source="194" target="195" edge="1">
                    <mxGeometry width="50" height="50" relative="1" as="geometry">
                        <mxPoint x="360" y="2000" as="sourcePoint"/>
                        <mxPoint x="410" y="1950" as="targetPoint"/>
                    </mxGeometry>
                </mxCell>
                <mxCell id="244" value="" style="endArrow=none;html=1;fontSize=12;entryX=1;entryY=0.5;entryDx=0;entryDy=0;exitX=0;exitY=0.5;exitDx=0;exitDy=0;" parent="1" source="201" target="194" edge="1">
                    <mxGeometry width="50" height="50" relative="1" as="geometry">
                        <mxPoint x="360" y="2080" as="sourcePoint"/>
                        <mxPoint x="410" y="2030" as="targetPoint"/>
                    </mxGeometry>
                </mxCell>
                <mxCell id="246" value="" style="endArrow=classic;html=1;fontSize=12;entryX=0.5;entryY=0;entryDx=0;entryDy=0;exitX=0.5;exitY=1;exitDx=0;exitDy=0;" parent="1" source="166" target="175" edge="1">
                    <mxGeometry width="50" height="50" relative="1" as="geometry">
                        <mxPoint x="430" y="3060" as="sourcePoint"/>
                        <mxPoint x="480" y="3010" as="targetPoint"/>
                    </mxGeometry>
                </mxCell>
                <mxCell id="247" value="Mot_Cle" style="swimlane;whiteSpace=wrap;html=1;fontSize=12;" parent="1" vertex="1">
                    <mxGeometry y="2890" width="120" height="120" as="geometry"/>
                </mxCell>
                <mxCell id="248" value="&lt;u&gt;id_motCle&lt;/u&gt;" style="text;html=1;align=center;verticalAlign=middle;resizable=0;points=[];autosize=1;strokeColor=none;fillColor=none;fontSize=12;" parent="247" vertex="1">
                    <mxGeometry x="20" y="30" width="80" height="30" as="geometry"/>
                </mxCell>
                <mxCell id="249" value="libelle" style="text;html=1;align=center;verticalAlign=middle;resizable=0;points=[];autosize=1;strokeColor=none;fillColor=none;fontSize=12;" parent="247" vertex="1">
                    <mxGeometry x="30" y="70" width="50" height="30" as="geometry"/>
                </mxCell>
                <mxCell id="250" value="" style="endArrow=classic;html=1;fontSize=12;entryX=0;entryY=0.5;entryDx=0;entryDy=0;exitX=1;exitY=0.5;exitDx=0;exitDy=0;" parent="1" source="247" target="166" edge="1">
                    <mxGeometry width="50" height="50" relative="1" as="geometry">
                        <mxPoint x="430" y="3060" as="sourcePoint"/>
                        <mxPoint x="480" y="3010" as="targetPoint"/>
                    </mxGeometry>
                </mxCell>
                <mxCell id="252" value="1,N" style="text;html=1;align=center;verticalAlign=middle;resizable=0;points=[];autosize=1;strokeColor=none;fillColor=none;fontSize=12;" parent="1" vertex="1">
                    <mxGeometry x="85" y="1800" width="40" height="30" as="geometry"/>
                </mxCell>
                <mxCell id="254" value="1,1" style="text;html=1;align=center;verticalAlign=middle;resizable=0;points=[];autosize=1;strokeColor=none;fillColor=none;fontSize=12;" parent="1" vertex="1">
                    <mxGeometry x="180" y="1675" width="40" height="30" as="geometry"/>
                </mxCell>
                <mxCell id="255" value="1,N" style="text;html=1;align=center;verticalAlign=middle;resizable=0;points=[];autosize=1;strokeColor=none;fillColor=none;fontSize=12;" parent="1" vertex="1">
                    <mxGeometry x="385" y="1675" width="40" height="30" as="geometry"/>
                </mxCell>
                <mxCell id="256" value="1,N" style="text;html=1;align=center;verticalAlign=middle;resizable=0;points=[];autosize=1;strokeColor=none;fillColor=none;fontSize=12;" parent="1" vertex="1">
                    <mxGeometry x="625" y="1670" width="40" height="30" as="geometry"/>
                </mxCell>
                <mxCell id="257" value="1,1" style="text;html=1;align=center;verticalAlign=middle;resizable=0;points=[];autosize=1;strokeColor=none;fillColor=none;fontSize=12;" parent="1" vertex="1">
                    <mxGeometry x="305" y="1795" width="40" height="30" as="geometry"/>
                </mxCell>
                <mxCell id="258" value="1,1" style="text;html=1;align=center;verticalAlign=middle;resizable=0;points=[];autosize=1;strokeColor=none;fillColor=none;fontSize=12;" parent="1" vertex="1">
                    <mxGeometry x="300" y="1950" width="40" height="30" as="geometry"/>
                </mxCell>
                <mxCell id="259" value="" style="endArrow=none;html=1;fontSize=12;entryX=1;entryY=0.5;entryDx=0;entryDy=0;" parent="1" target="201" edge="1">
                    <mxGeometry width="50" height="50" relative="1" as="geometry">
                        <mxPoint x="670" y="2080" as="sourcePoint"/>
                        <mxPoint x="480" y="2010" as="targetPoint"/>
                    </mxGeometry>
                </mxCell>
                <mxCell id="260" value="1,N" style="text;html=1;align=center;verticalAlign=middle;resizable=0;points=[];autosize=1;strokeColor=none;fillColor=none;fontSize=12;" parent="1" vertex="1">
                    <mxGeometry x="380" y="2055" width="40" height="30" as="geometry"/>
                </mxCell>
                <mxCell id="261" value="1,N" style="text;html=1;align=center;verticalAlign=middle;resizable=0;points=[];autosize=1;strokeColor=none;fillColor=none;fontSize=12;" parent="1" vertex="1">
                    <mxGeometry x="630" y="2050" width="40" height="30" as="geometry"/>
                </mxCell>
                <mxCell id="263" value="&lt;u&gt;&lt;b&gt;3ème Cas:&lt;/b&gt;&lt;/u&gt;" style="text;html=1;align=center;verticalAlign=middle;resizable=0;points=[];autosize=1;strokeColor=none;fillColor=none;fontSize=14;" parent="1" vertex="1">
                    <mxGeometry x="20" y="3250" width="90" height="30" as="geometry"/>
                </mxCell>
                <mxCell id="264" value="OUVRAGE" style="swimlane;whiteSpace=wrap;html=1;" parent="1" vertex="1">
                    <mxGeometry x="220" y="3410" width="160" height="200" as="geometry"/>
                </mxCell>
                <mxCell id="265" value="&lt;u&gt;id_ouvrage&lt;/u&gt;" style="text;html=1;align=center;verticalAlign=middle;resizable=0;points=[];autosize=1;strokeColor=none;fillColor=none;" parent="264" vertex="1">
                    <mxGeometry x="40" y="30" width="80" height="30" as="geometry"/>
                </mxCell>
                <mxCell id="266" value="nbre_page" style="text;html=1;align=center;verticalAlign=middle;resizable=0;points=[];autosize=1;strokeColor=none;fillColor=none;" parent="264" vertex="1">
                    <mxGeometry x="40" y="115" width="80" height="30" as="geometry"/>
                </mxCell>
                <mxCell id="267" value="&lt;font style=&quot;font-size: 12px;&quot;&gt;titre&lt;/font&gt;" style="text;html=1;align=center;verticalAlign=middle;resizable=0;points=[];autosize=1;strokeColor=none;fillColor=none;fontSize=14;" parent="264" vertex="1">
                    <mxGeometry x="60" y="70" width="40" height="30" as="geometry"/>
                </mxCell>
                <mxCell id="268" value="ADHERENT" style="swimlane;whiteSpace=wrap;html=1;" parent="1" vertex="1">
                    <mxGeometry x="670" y="3770" width="160" height="200" as="geometry"/>
                </mxCell>
                <mxCell id="269" value="id_adherent" style="text;html=1;align=center;verticalAlign=middle;resizable=0;points=[];autosize=1;strokeColor=none;fillColor=none;" parent="268" vertex="1">
                    <mxGeometry x="35" y="40" width="90" height="30" as="geometry"/>
                </mxCell>
                <mxCell id="270" value="nom_adherent" style="text;html=1;align=center;verticalAlign=middle;resizable=0;points=[];autosize=1;strokeColor=none;fillColor=none;" parent="268" vertex="1">
                    <mxGeometry x="30" y="70" width="100" height="30" as="geometry"/>
                </mxCell>
                <mxCell id="271" value="adresse" style="text;html=1;align=center;verticalAlign=middle;resizable=0;points=[];autosize=1;strokeColor=none;fillColor=none;" parent="268" vertex="1">
                    <mxGeometry x="45" y="100" width="70" height="30" as="geometry"/>
                </mxCell>
                <mxCell id="365" value="&lt;font style=&quot;font-size: 12px;&quot;&gt;telephone&lt;/font&gt;" style="text;html=1;align=center;verticalAlign=middle;resizable=0;points=[];autosize=1;strokeColor=none;fillColor=none;fontSize=14;" parent="268" vertex="1">
                    <mxGeometry x="40" y="140" width="80" height="30" as="geometry"/>
                </mxCell>
                <mxCell id="272" value="AUTEUR" style="swimlane;whiteSpace=wrap;html=1;" parent="1" vertex="1">
                    <mxGeometry x="660" y="3400" width="160" height="200" as="geometry"/>
                </mxCell>
                <mxCell id="273" value="&lt;u&gt;id_auteur&amp;nbsp;&lt;/u&gt;" style="text;html=1;align=center;verticalAlign=middle;resizable=0;points=[];autosize=1;strokeColor=none;fillColor=none;" parent="272" vertex="1">
                    <mxGeometry x="40" y="40" width="80" height="30" as="geometry"/>
                </mxCell>
                <mxCell id="274" value="nom_auteur" style="text;html=1;align=center;verticalAlign=middle;resizable=0;points=[];autosize=1;strokeColor=none;fillColor=none;" parent="272" vertex="1">
                    <mxGeometry x="35" y="70" width="90" height="30" as="geometry"/>
                </mxCell>
                <mxCell id="275" value="prenom" style="text;html=1;align=center;verticalAlign=middle;resizable=0;points=[];autosize=1;strokeColor=none;fillColor=none;" parent="272" vertex="1">
                    <mxGeometry x="50" y="100" width="60" height="30" as="geometry"/>
                </mxCell>
                <mxCell id="276" value="ECRIRE" style="ellipse;whiteSpace=wrap;html=1;" parent="1" vertex="1">
                    <mxGeometry x="465" y="3460" width="120" height="80" as="geometry"/>
                </mxCell>
                <mxCell id="277" value="" style="endArrow=none;html=1;fontSize=12;entryX=0;entryY=0.5;entryDx=0;entryDy=0;exitX=1;exitY=0.5;exitDx=0;exitDy=0;" parent="1" source="276" target="272" edge="1">
                    <mxGeometry width="50" height="50" relative="1" as="geometry">
                        <mxPoint x="430" y="3990" as="sourcePoint"/>
                        <mxPoint x="480" y="3940" as="targetPoint"/>
                    </mxGeometry>
                </mxCell>
                <mxCell id="278" value="Emprunt" style="swimlane;whiteSpace=wrap;html=1;fontSize=14;direction=east;" parent="1" vertex="1">
                    <mxGeometry x="430" y="3580" width="160" height="200" as="geometry">
                        <mxRectangle x="430" y="3580" width="100" height="30" as="alternateBounds"/>
                    </mxGeometry>
                </mxCell>
                <mxCell id="279" value="&lt;u&gt;id_emprunt&lt;/u&gt;" style="text;html=1;align=center;verticalAlign=middle;resizable=0;points=[];autosize=1;strokeColor=none;fillColor=none;fontSize=14;" parent="278" vertex="1">
                    <mxGeometry x="40" y="40" width="90" height="30" as="geometry"/>
                </mxCell>
                <mxCell id="280" value="date_emprunt" style="text;html=1;align=center;verticalAlign=middle;resizable=0;points=[];autosize=1;strokeColor=none;fillColor=none;fontSize=14;" parent="278" vertex="1">
                    <mxGeometry x="30" y="80" width="110" height="30" as="geometry"/>
                </mxCell>
                <mxCell id="281" value="delai" style="text;html=1;align=center;verticalAlign=middle;resizable=0;points=[];autosize=1;strokeColor=none;fillColor=none;fontSize=12;" parent="278" vertex="1">
                    <mxGeometry x="55" y="120" width="50" height="30" as="geometry"/>
                </mxCell>
                <mxCell id="283" value="FAIRE" style="ellipse;whiteSpace=wrap;html=1;fontSize=14;" parent="1" vertex="1">
                    <mxGeometry x="230" y="3765" width="120" height="80" as="geometry"/>
                </mxCell>
                <mxCell id="284" value="POUVOIR" style="ellipse;whiteSpace=wrap;html=1;fontSize=14;" parent="1" vertex="1">
                    <mxGeometry x="450" y="3840" width="120" height="80" as="geometry"/>
                </mxCell>
                <mxCell id="285" value="Mot_Cle" style="swimlane;whiteSpace=wrap;html=1;fontSize=12;" parent="1" vertex="1">
                    <mxGeometry x="20" y="3310" width="160" height="120" as="geometry"/>
                </mxCell>
                <mxCell id="286" value="libelle" style="text;html=1;align=center;verticalAlign=middle;resizable=0;points=[];autosize=1;strokeColor=none;fillColor=none;fontSize=12;" parent="285" vertex="1">
                    <mxGeometry x="55" y="70" width="50" height="30" as="geometry"/>
                </mxCell>
                <mxCell id="291" value="&lt;u&gt;id_motCle&lt;/u&gt;" style="text;html=1;align=center;verticalAlign=middle;resizable=0;points=[];autosize=1;strokeColor=none;fillColor=none;fontSize=12;" parent="285" vertex="1">
                    <mxGeometry x="40" y="40" width="80" height="30" as="geometry"/>
                </mxCell>
                <mxCell id="287" value="REFERENCER" style="ellipse;whiteSpace=wrap;html=1;fontSize=12;" parent="1" vertex="1">
                    <mxGeometry x="20" y="3460" width="120" height="80" as="geometry"/>
                </mxCell>
                <mxCell id="288" value="" style="endArrow=none;html=1;fontSize=12;" parent="1" source="287" edge="1">
                    <mxGeometry width="50" height="50" relative="1" as="geometry">
                        <mxPoint x="390" y="3580" as="sourcePoint"/>
                        <mxPoint x="80" y="3430" as="targetPoint"/>
                    </mxGeometry>
                </mxCell>
                <mxCell id="289" value="" style="endArrow=none;html=1;fontSize=12;exitX=1;exitY=0.5;exitDx=0;exitDy=0;" parent="1" source="287" edge="1">
                    <mxGeometry width="50" height="50" relative="1" as="geometry">
                        <mxPoint x="390" y="3580" as="sourcePoint"/>
                        <mxPoint x="220" y="3500" as="targetPoint"/>
                    </mxGeometry>
                </mxCell>
                <mxCell id="290" value="" style="endArrow=none;html=1;fontSize=12;entryX=1;entryY=0.5;entryDx=0;entryDy=0;exitX=0;exitY=0.5;exitDx=0;exitDy=0;" parent="1" source="283" target="305" edge="1">
                    <mxGeometry width="50" height="50" relative="1" as="geometry">
                        <mxPoint x="390" y="3580" as="sourcePoint"/>
                        <mxPoint x="440" y="3530" as="targetPoint"/>
                    </mxGeometry>
                </mxCell>
                <mxCell id="292" value="" style="endArrow=none;html=1;fontSize=12;exitX=0;exitY=0.5;exitDx=0;exitDy=0;" parent="1" source="276" edge="1">
                    <mxGeometry width="50" height="50" relative="1" as="geometry">
                        <mxPoint x="250" y="3620" as="sourcePoint"/>
                        <mxPoint x="380" y="3500" as="targetPoint"/>
                    </mxGeometry>
                </mxCell>
                <mxCell id="294" value="" style="endArrow=none;html=1;fontSize=12;entryX=0.5;entryY=1;entryDx=0;entryDy=0;exitX=0.5;exitY=0;exitDx=0;exitDy=0;" parent="1" source="284" target="278" edge="1">
                    <mxGeometry width="50" height="50" relative="1" as="geometry">
                        <mxPoint x="360" y="3880" as="sourcePoint"/>
                        <mxPoint x="410" y="3830" as="targetPoint"/>
                    </mxGeometry>
                </mxCell>
                <mxCell id="295" value="1,N" style="text;html=1;align=center;verticalAlign=middle;resizable=0;points=[];autosize=1;strokeColor=none;fillColor=none;fontSize=12;" parent="1" vertex="1">
                    <mxGeometry x="70" y="3430" width="40" height="30" as="geometry"/>
                </mxCell>
                <mxCell id="296" value="1,1" style="text;html=1;align=center;verticalAlign=middle;resizable=0;points=[];autosize=1;strokeColor=none;fillColor=none;fontSize=12;" parent="1" vertex="1">
                    <mxGeometry x="180" y="3475" width="40" height="30" as="geometry"/>
                </mxCell>
                <mxCell id="297" value="1,N" style="text;html=1;align=center;verticalAlign=middle;resizable=0;points=[];autosize=1;strokeColor=none;fillColor=none;fontSize=12;" parent="1" vertex="1">
                    <mxGeometry x="385" y="3475" width="40" height="30" as="geometry"/>
                </mxCell>
                <mxCell id="298" value="1,N" style="text;html=1;align=center;verticalAlign=middle;resizable=0;points=[];autosize=1;strokeColor=none;fillColor=none;fontSize=12;" parent="1" vertex="1">
                    <mxGeometry x="625" y="3470" width="40" height="30" as="geometry"/>
                </mxCell>
                <mxCell id="300" value="1,1" style="text;html=1;align=center;verticalAlign=middle;resizable=0;points=[];autosize=1;strokeColor=none;fillColor=none;fontSize=12;" parent="1" vertex="1">
                    <mxGeometry x="395" y="3650" width="40" height="30" as="geometry"/>
                </mxCell>
                <mxCell id="301" value="" style="endArrow=none;html=1;fontSize=12;entryX=1;entryY=0.5;entryDx=0;entryDy=0;" parent="1" target="284" edge="1">
                    <mxGeometry width="50" height="50" relative="1" as="geometry">
                        <mxPoint x="670" y="3880" as="sourcePoint"/>
                        <mxPoint x="480" y="3810" as="targetPoint"/>
                    </mxGeometry>
                </mxCell>
                <mxCell id="302" value="1,N" style="text;html=1;align=center;verticalAlign=middle;resizable=0;points=[];autosize=1;strokeColor=none;fillColor=none;fontSize=12;" parent="1" vertex="1">
                    <mxGeometry x="470" y="3780" width="40" height="30" as="geometry"/>
                </mxCell>
                <mxCell id="303" value="1,N" style="text;html=1;align=center;verticalAlign=middle;resizable=0;points=[];autosize=1;strokeColor=none;fillColor=none;fontSize=12;" parent="1" vertex="1">
                    <mxGeometry x="630" y="3850" width="40" height="30" as="geometry"/>
                </mxCell>
                <mxCell id="305" value="exemplaire" style="swimlane;whiteSpace=wrap;html=1;fontSize=14;" parent="1" vertex="1">
                    <mxGeometry x="5" y="3760" width="160" height="90" as="geometry"/>
                </mxCell>
                <mxCell id="315" value="id_exemplaire" style="text;html=1;align=center;verticalAlign=middle;resizable=0;points=[];autosize=1;strokeColor=none;fillColor=none;fontSize=12;" parent="305" vertex="1">
                    <mxGeometry x="30" y="30" width="100" height="30" as="geometry"/>
                </mxCell>
                <mxCell id="306" value="avoir" style="ellipse;whiteSpace=wrap;html=1;fontSize=14;" parent="1" vertex="1">
                    <mxGeometry x="20" y="3610" width="120" height="80" as="geometry"/>
                </mxCell>
                <mxCell id="310" value="" style="shape=partialRectangle;whiteSpace=wrap;html=1;bottom=0;right=0;fillColor=none;fontSize=14;direction=east;" parent="1" vertex="1">
                    <mxGeometry x="80" y="3550" width="140" height="60" as="geometry"/>
                </mxCell>
                <mxCell id="311" value="" style="endArrow=none;html=1;fontSize=14;entryX=0.5;entryY=1;entryDx=0;entryDy=0;" parent="1" target="306" edge="1">
                    <mxGeometry width="50" height="50" relative="1" as="geometry">
                        <mxPoint x="80" y="3760" as="sourcePoint"/>
                        <mxPoint x="370" y="3650" as="targetPoint"/>
                    </mxGeometry>
                </mxCell>
                <mxCell id="312" value="&lt;font style=&quot;font-size: 12px;&quot;&gt;1,N&lt;/font&gt;" style="text;html=1;align=center;verticalAlign=middle;resizable=0;points=[];autosize=1;strokeColor=none;fillColor=none;fontSize=14;" parent="1" vertex="1">
                    <mxGeometry x="185" y="3550" width="40" height="30" as="geometry"/>
                </mxCell>
                <mxCell id="313" value="1,1" style="text;html=1;align=center;verticalAlign=middle;resizable=0;points=[];autosize=1;strokeColor=none;fillColor=none;fontSize=12;" parent="1" vertex="1">
                    <mxGeometry x="80" y="3720" width="40" height="30" as="geometry"/>
                </mxCell>
                <mxCell id="349" value="" style="shape=partialRectangle;whiteSpace=wrap;html=1;bottom=0;right=0;fillColor=none;fontSize=12;" parent="1" vertex="1">
                    <mxGeometry x="290" y="3675" width="140" height="90" as="geometry"/>
                </mxCell>
                <mxCell id="350" value="1,1" style="text;html=1;align=center;verticalAlign=middle;resizable=0;points=[];autosize=1;strokeColor=none;fillColor=none;fontSize=12;" parent="1" vertex="1">
                    <mxGeometry x="155" y="3770" width="40" height="30" as="geometry"/>
                </mxCell>
                <mxCell id="353" value="&lt;font style=&quot;font-size: 14px;&quot;&gt;&lt;b&gt;&lt;u&gt;Graphe de dépendance fonctionnelle&lt;/u&gt;&lt;/b&gt;&lt;/font&gt;" style="text;html=1;align=center;verticalAlign=middle;resizable=0;points=[];autosize=1;strokeColor=none;fillColor=none;fontSize=12;" parent="1" vertex="1">
                    <mxGeometry x="255" y="4050" width="270" height="30" as="geometry"/>
                </mxCell>
                <mxCell id="354" value="&lt;font style=&quot;font-size: 14px;&quot;&gt;id_emprunt&lt;/font&gt;" style="text;html=1;align=center;verticalAlign=middle;resizable=0;points=[];autosize=1;strokeColor=none;fillColor=none;" parent="1" vertex="1">
                    <mxGeometry x="355" y="4090" width="90" height="30" as="geometry"/>
                </mxCell>
                <mxCell id="355" value="date_emprunt" style="text;html=1;align=center;verticalAlign=middle;resizable=0;points=[];autosize=1;strokeColor=none;fillColor=none;fontSize=14;" parent="1" vertex="1">
                    <mxGeometry x="180" y="4150" width="110" height="30" as="geometry"/>
                </mxCell>
                <mxCell id="356" value="delai" style="text;html=1;align=center;verticalAlign=middle;resizable=0;points=[];autosize=1;strokeColor=none;fillColor=none;fontSize=14;" parent="1" vertex="1">
                    <mxGeometry x="410" y="4150" width="50" height="30" as="geometry"/>
                </mxCell>
                <mxCell id="358" value="id_exemplaire" style="text;html=1;align=center;verticalAlign=middle;resizable=0;points=[];autosize=1;strokeColor=none;fillColor=none;fontSize=14;" parent="1" vertex="1">
                    <mxGeometry x="295" y="4150" width="110" height="30" as="geometry"/>
                </mxCell>
                <mxCell id="359" value="id_adherent" style="text;html=1;align=center;verticalAlign=middle;resizable=0;points=[];autosize=1;strokeColor=none;fillColor=none;fontSize=14;" parent="1" vertex="1">
                    <mxGeometry x="585" y="4150" width="100" height="30" as="geometry"/>
                </mxCell>
                <mxCell id="360" value="id_ouvrage" style="text;html=1;align=center;verticalAlign=middle;resizable=0;points=[];autosize=1;strokeColor=none;fillColor=none;fontSize=14;" parent="1" vertex="1">
                    <mxGeometry x="305" y="4215" width="90" height="30" as="geometry"/>
                </mxCell>
                <mxCell id="361" value="titre" style="text;html=1;align=center;verticalAlign=middle;resizable=0;points=[];autosize=1;strokeColor=none;fillColor=none;fontSize=14;" parent="1" vertex="1">
                    <mxGeometry x="190" y="4270" width="50" height="30" as="geometry"/>
                </mxCell>
                <mxCell id="362" value="nbre_page" style="text;html=1;align=center;verticalAlign=middle;resizable=0;points=[];autosize=1;strokeColor=none;fillColor=none;fontSize=14;" parent="1" vertex="1">
                    <mxGeometry x="255" y="4270" width="90" height="30" as="geometry"/>
                </mxCell>
                <mxCell id="363" value="id_auteur" style="text;html=1;align=center;verticalAlign=middle;resizable=0;points=[];autosize=1;strokeColor=none;fillColor=none;fontSize=14;" parent="1" vertex="1">
                    <mxGeometry x="360" y="4270" width="80" height="30" as="geometry"/>
                </mxCell>
                <mxCell id="364" value="id_motCle" style="text;html=1;align=center;verticalAlign=middle;resizable=0;points=[];autosize=1;strokeColor=none;fillColor=none;fontSize=14;" parent="1" vertex="1">
                    <mxGeometry x="440" y="4270" width="90" height="30" as="geometry"/>
                </mxCell>
                <mxCell id="366" value="&lt;font style=&quot;font-size: 14px;&quot;&gt;nom_adherent&lt;/font&gt;" style="text;html=1;align=center;verticalAlign=middle;resizable=0;points=[];autosize=1;strokeColor=none;fillColor=none;fontSize=12;" parent="1" vertex="1">
                    <mxGeometry x="500" y="4215" width="110" height="30" as="geometry"/>
                </mxCell>
                <mxCell id="367" value="adresse" style="text;html=1;align=center;verticalAlign=middle;resizable=0;points=[];autosize=1;strokeColor=none;fillColor=none;fontSize=14;" parent="1" vertex="1">
                    <mxGeometry x="610" y="4215" width="70" height="30" as="geometry"/>
                </mxCell>
                <mxCell id="368" value="telephone" style="text;html=1;align=center;verticalAlign=middle;resizable=0;points=[];autosize=1;strokeColor=none;fillColor=none;fontSize=14;" parent="1" vertex="1">
                    <mxGeometry x="680" y="4215" width="90" height="30" as="geometry"/>
                </mxCell>
                <mxCell id="369" value="" style="endArrow=classic;html=1;fontSize=14;exitX=0.167;exitY=1;exitDx=0;exitDy=0;exitPerimeter=0;entryX=0.497;entryY=0.064;entryDx=0;entryDy=0;entryPerimeter=0;" parent="1" source="354" target="355" edge="1">
                    <mxGeometry width="50" height="50" relative="1" as="geometry">
                        <mxPoint x="350" y="4280" as="sourcePoint"/>
                        <mxPoint x="400" y="4230" as="targetPoint"/>
                    </mxGeometry>
                </mxCell>
                <mxCell id="370" value="" style="endArrow=classic;html=1;fontSize=14;exitX=0.345;exitY=1.092;exitDx=0;exitDy=0;exitPerimeter=0;entryX=0.5;entryY=0;entryDx=0;entryDy=0;entryPerimeter=0;" parent="1" source="354" target="358" edge="1">
                    <mxGeometry width="50" height="50" relative="1" as="geometry">
                        <mxPoint x="350" y="4280" as="sourcePoint"/>
                        <mxPoint x="400" y="4230" as="targetPoint"/>
                    </mxGeometry>
                </mxCell>
                <mxCell id="371" value="" style="endArrow=classic;html=1;fontSize=14;exitX=0.654;exitY=1.069;exitDx=0;exitDy=0;exitPerimeter=0;" parent="1" source="354" edge="1">
                    <mxGeometry width="50" height="50" relative="1" as="geometry">
                        <mxPoint x="350" y="4280" as="sourcePoint"/>
                        <mxPoint x="430" y="4150" as="targetPoint"/>
                    </mxGeometry>
                </mxCell>
                <mxCell id="373" value="" style="endArrow=classic;html=1;fontSize=14;exitX=1.039;exitY=0.999;exitDx=0;exitDy=0;exitPerimeter=0;entryX=0.274;entryY=0.041;entryDx=0;entryDy=0;entryPerimeter=0;" parent="1" source="354" target="359" edge="1">
                    <mxGeometry width="50" height="50" relative="1" as="geometry">
                        <mxPoint x="350" y="4280" as="sourcePoint"/>
                        <mxPoint x="400" y="4230" as="targetPoint"/>
                    </mxGeometry>
                </mxCell>
                <mxCell id="374" value="" style="endArrow=classic;html=1;fontSize=14;exitX=0.48;exitY=1.013;exitDx=0;exitDy=0;exitPerimeter=0;" parent="1" source="358" edge="1">
                    <mxGeometry width="50" height="50" relative="1" as="geometry">
                        <mxPoint x="350" y="4280" as="sourcePoint"/>
                        <mxPoint x="348" y="4220" as="targetPoint"/>
                    </mxGeometry>
                </mxCell>
                <mxCell id="376" value="" style="endArrow=classic;html=1;fontSize=14;exitX=0.35;exitY=1;exitDx=0;exitDy=0;exitPerimeter=0;entryX=0.455;entryY=0.167;entryDx=0;entryDy=0;entryPerimeter=0;" parent="1" source="359" target="366" edge="1">
                    <mxGeometry width="50" height="50" relative="1" as="geometry">
                        <mxPoint x="350" y="4280" as="sourcePoint"/>
                        <mxPoint x="400" y="4230" as="targetPoint"/>
                    </mxGeometry>
                </mxCell>
                <mxCell id="377" value="" style="endArrow=classic;html=1;fontSize=14;exitX=0.538;exitY=1.106;exitDx=0;exitDy=0;exitPerimeter=0;entryX=0.429;entryY=0.167;entryDx=0;entryDy=0;entryPerimeter=0;" parent="1" source="359" target="367" edge="1">
                    <mxGeometry width="50" height="50" relative="1" as="geometry">
                        <mxPoint x="350" y="4280" as="sourcePoint"/>
                        <mxPoint x="400" y="4230" as="targetPoint"/>
                    </mxGeometry>
                </mxCell>
                <mxCell id="378" value="" style="endArrow=classic;html=1;fontSize=14;exitX=0.705;exitY=0.967;exitDx=0;exitDy=0;exitPerimeter=0;entryX=0.468;entryY=0.05;entryDx=0;entryDy=0;entryPerimeter=0;" parent="1" source="359" target="368" edge="1">
                    <mxGeometry width="50" height="50" relative="1" as="geometry">
                        <mxPoint x="350" y="4280" as="sourcePoint"/>
                        <mxPoint x="400" y="4230" as="targetPoint"/>
                    </mxGeometry>
                </mxCell>
                <mxCell id="379" value="" style="endArrow=classic;html=1;fontSize=14;exitX=0.167;exitY=0.976;exitDx=0;exitDy=0;exitPerimeter=0;" parent="1" source="360" target="361" edge="1">
                    <mxGeometry width="50" height="50" relative="1" as="geometry">
                        <mxPoint x="350" y="4280" as="sourcePoint"/>
                        <mxPoint x="400" y="4230" as="targetPoint"/>
                    </mxGeometry>
                </mxCell>
                <mxCell id="380" value="" style="endArrow=classic;html=1;fontSize=14;" parent="1" target="362" edge="1">
                    <mxGeometry width="50" height="50" relative="1" as="geometry">
                        <mxPoint x="350" y="4240" as="sourcePoint"/>
                        <mxPoint x="400" y="4230" as="targetPoint"/>
                    </mxGeometry>
                </mxCell>
                <mxCell id="381" value="" style="endArrow=classic;html=1;fontSize=14;exitX=0.661;exitY=0.999;exitDx=0;exitDy=0;exitPerimeter=0;" parent="1" source="360" edge="1">
                    <mxGeometry width="50" height="50" relative="1" as="geometry">
                        <mxPoint x="350" y="4280" as="sourcePoint"/>
                        <mxPoint x="400" y="4280" as="targetPoint"/>
                    </mxGeometry>
                </mxCell>
                <mxCell id="382" value="" style="endArrow=classic;html=1;fontSize=14;" parent="1" source="360" edge="1">
                    <mxGeometry width="50" height="50" relative="1" as="geometry">
                        <mxPoint x="350" y="4280" as="sourcePoint"/>
                        <mxPoint x="470" y="4270" as="targetPoint"/>
                    </mxGeometry>
                </mxCell>
                <mxCell id="383" value="&lt;font style=&quot;font-size: 14px;&quot;&gt;MLD&lt;/font&gt;" style="text;html=1;align=center;verticalAlign=middle;resizable=0;points=[];autosize=1;strokeColor=none;fillColor=none;fontSize=14;" parent="1" vertex="1">
                    <mxGeometry x="315" y="4370" width="50" height="30" as="geometry"/>
                </mxCell>
                <mxCell id="384" value="OUVRAGE" style="swimlane;whiteSpace=wrap;html=1;" parent="1" vertex="1">
                    <mxGeometry x="222.5" y="4490" width="160" height="200" as="geometry"/>
                </mxCell>
                <mxCell id="385" value="&lt;u&gt;id_ouvrage&lt;/u&gt;" style="text;html=1;align=center;verticalAlign=middle;resizable=0;points=[];autosize=1;strokeColor=none;fillColor=none;" parent="384" vertex="1">
                    <mxGeometry x="40" y="30" width="80" height="30" as="geometry"/>
                </mxCell>
                <mxCell id="386" value="nbre_page" style="text;html=1;align=center;verticalAlign=middle;resizable=0;points=[];autosize=1;strokeColor=none;fillColor=none;" parent="384" vertex="1">
                    <mxGeometry x="40" y="115" width="80" height="30" as="geometry"/>
                </mxCell>
                <mxCell id="387" value="&lt;font style=&quot;font-size: 12px;&quot;&gt;titre&lt;/font&gt;" style="text;html=1;align=center;verticalAlign=middle;resizable=0;points=[];autosize=1;strokeColor=none;fillColor=none;fontSize=14;" parent="384" vertex="1">
                    <mxGeometry x="60" y="70" width="40" height="30" as="geometry"/>
                </mxCell>
                <mxCell id="438" value="#id_motCle" style="text;html=1;align=center;verticalAlign=middle;resizable=0;points=[];autosize=1;strokeColor=none;fillColor=none;fontSize=12;" parent="384" vertex="1">
                    <mxGeometry x="40" y="160" width="80" height="30" as="geometry"/>
                </mxCell>
                <mxCell id="388" value="ADHERENT" style="swimlane;whiteSpace=wrap;html=1;" parent="1" vertex="1">
                    <mxGeometry x="640" y="4970" width="160" height="200" as="geometry"/>
                </mxCell>
                <mxCell id="389" value="id_adherent" style="text;html=1;align=center;verticalAlign=middle;resizable=0;points=[];autosize=1;strokeColor=none;fillColor=none;" parent="388" vertex="1">
                    <mxGeometry x="35" y="40" width="90" height="30" as="geometry"/>
                </mxCell>
                <mxCell id="390" value="nom_adherent" style="text;html=1;align=center;verticalAlign=middle;resizable=0;points=[];autosize=1;strokeColor=none;fillColor=none;" parent="388" vertex="1">
                    <mxGeometry x="30" y="70" width="100" height="30" as="geometry"/>
                </mxCell>
                <mxCell id="391" value="adresse" style="text;html=1;align=center;verticalAlign=middle;resizable=0;points=[];autosize=1;strokeColor=none;fillColor=none;" parent="388" vertex="1">
                    <mxGeometry x="45" y="100" width="70" height="30" as="geometry"/>
                </mxCell>
                <mxCell id="392" value="&lt;font style=&quot;font-size: 12px;&quot;&gt;telephone&lt;/font&gt;" style="text;html=1;align=center;verticalAlign=middle;resizable=0;points=[];autosize=1;strokeColor=none;fillColor=none;fontSize=14;" parent="388" vertex="1">
                    <mxGeometry x="40" y="140" width="80" height="30" as="geometry"/>
                </mxCell>
                <mxCell id="393" value="AUTEUR" style="swimlane;whiteSpace=wrap;html=1;" parent="1" vertex="1">
                    <mxGeometry x="660" y="4490" width="160" height="200" as="geometry"/>
                </mxCell>
                <mxCell id="394" value="id_auteur&amp;nbsp;" style="text;html=1;align=center;verticalAlign=middle;resizable=0;points=[];autosize=1;strokeColor=none;fillColor=none;" parent="393" vertex="1">
                    <mxGeometry x="40" y="40" width="80" height="30" as="geometry"/>
                </mxCell>
                <mxCell id="395" value="nom_auteur" style="text;html=1;align=center;verticalAlign=middle;resizable=0;points=[];autosize=1;strokeColor=none;fillColor=none;" parent="393" vertex="1">
                    <mxGeometry x="35" y="70" width="90" height="30" as="geometry"/>
                </mxCell>
                <mxCell id="396" value="prenom" style="text;html=1;align=center;verticalAlign=middle;resizable=0;points=[];autosize=1;strokeColor=none;fillColor=none;" parent="393" vertex="1">
                    <mxGeometry x="50" y="100" width="60" height="30" as="geometry"/>
                </mxCell>
                <mxCell id="399" value="Emprunt" style="swimlane;whiteSpace=wrap;html=1;fontSize=14;direction=east;" parent="1" vertex="1">
                    <mxGeometry x="430" y="4745" width="160" height="200" as="geometry">
                        <mxRectangle x="430" y="3580" width="100" height="30" as="alternateBounds"/>
                    </mxGeometry>
                </mxCell>
                <mxCell id="400" value="&lt;u&gt;id_emprunt&lt;/u&gt;" style="text;html=1;align=center;verticalAlign=middle;resizable=0;points=[];autosize=1;strokeColor=none;fillColor=none;fontSize=14;" parent="399" vertex="1">
                    <mxGeometry x="40" y="40" width="90" height="30" as="geometry"/>
                </mxCell>
                <mxCell id="401" value="date_emprunt" style="text;html=1;align=center;verticalAlign=middle;resizable=0;points=[];autosize=1;strokeColor=none;fillColor=none;fontSize=14;" parent="399" vertex="1">
                    <mxGeometry x="30" y="80" width="110" height="30" as="geometry"/>
                </mxCell>
                <mxCell id="402" value="delai" style="text;html=1;align=center;verticalAlign=middle;resizable=0;points=[];autosize=1;strokeColor=none;fillColor=none;fontSize=12;" parent="399" vertex="1">
                    <mxGeometry x="55" y="140" width="50" height="30" as="geometry"/>
                </mxCell>
                <mxCell id="403" value="penalite" style="text;html=1;align=center;verticalAlign=middle;resizable=0;points=[];autosize=1;strokeColor=none;fillColor=none;fontSize=12;" parent="399" vertex="1">
                    <mxGeometry x="45" y="170" width="70" height="30" as="geometry"/>
                </mxCell>
                <mxCell id="528" value="date_retour" style="text;html=1;align=center;verticalAlign=middle;resizable=0;points=[];autosize=1;strokeColor=none;fillColor=none;" parent="399" vertex="1">
                    <mxGeometry x="40" y="110" width="80" height="30" as="geometry"/>
                </mxCell>
                <mxCell id="406" value="Mot_Cle" style="swimlane;whiteSpace=wrap;html=1;fontSize=12;" parent="1" vertex="1">
                    <mxGeometry x="30" y="4530" width="100" height="120" as="geometry"/>
                </mxCell>
                <mxCell id="407" value="libelle" style="text;html=1;align=center;verticalAlign=middle;resizable=0;points=[];autosize=1;strokeColor=none;fillColor=none;fontSize=12;" parent="406" vertex="1">
                    <mxGeometry x="25" y="70" width="50" height="30" as="geometry"/>
                </mxCell>
                <mxCell id="408" value="id_motCle" style="text;html=1;align=center;verticalAlign=middle;resizable=0;points=[];autosize=1;strokeColor=none;fillColor=none;fontSize=12;" parent="406" vertex="1">
                    <mxGeometry x="10" y="40" width="80" height="30" as="geometry"/>
                </mxCell>
                <mxCell id="423" value="exemplaire" style="swimlane;whiteSpace=wrap;html=1;fontSize=14;" parent="1" vertex="1">
                    <mxGeometry x="2.5" y="4800" width="160" height="90" as="geometry"/>
                </mxCell>
                <mxCell id="424" value="id_exemplaire" style="text;html=1;align=center;verticalAlign=middle;resizable=0;points=[];autosize=1;strokeColor=none;fillColor=none;fontSize=12;" parent="423" vertex="1">
                    <mxGeometry x="30" y="30" width="100" height="30" as="geometry"/>
                </mxCell>
                <mxCell id="440" value="#id_ouvrage" style="text;html=1;align=center;verticalAlign=middle;resizable=0;points=[];autosize=1;strokeColor=none;fillColor=none;fontSize=12;" parent="423" vertex="1">
                    <mxGeometry x="32.5" y="55" width="90" height="30" as="geometry"/>
                </mxCell>
                <mxCell id="432" value="FAIRE" style="swimlane;whiteSpace=wrap;html=1;fontSize=14;" parent="1" vertex="1">
                    <mxGeometry x="225" y="4800" width="130" height="90" as="geometry"/>
                </mxCell>
                <mxCell id="433" value="&lt;span style=&quot;font-size: 12px;&quot;&gt;#id_exemplaire&lt;/span&gt;" style="text;html=1;align=center;verticalAlign=middle;resizable=0;points=[];autosize=1;strokeColor=none;fillColor=none;fontSize=14;" parent="432" vertex="1">
                    <mxGeometry x="15" y="30" width="100" height="30" as="geometry"/>
                </mxCell>
                <mxCell id="434" value="#id_emprunt" style="text;html=1;align=center;verticalAlign=middle;resizable=0;points=[];autosize=1;strokeColor=none;fillColor=none;fontSize=12;" parent="432" vertex="1">
                    <mxGeometry x="20" y="55" width="90" height="30" as="geometry"/>
                </mxCell>
                <mxCell id="437" value="" style="endArrow=classic;html=1;fontSize=12;exitX=1;exitY=0.5;exitDx=0;exitDy=0;entryX=0;entryY=0.5;entryDx=0;entryDy=0;" parent="1" source="406" target="384" edge="1">
                    <mxGeometry width="50" height="50" relative="1" as="geometry">
                        <mxPoint x="230" y="4680" as="sourcePoint"/>
                        <mxPoint x="280" y="4630" as="targetPoint"/>
                    </mxGeometry>
                </mxCell>
                <mxCell id="439" value="" style="edgeStyle=segmentEdgeStyle;endArrow=classic;html=1;curved=0;rounded=0;endSize=8;startSize=8;fontSize=12;" parent="1" target="423" edge="1">
                    <mxGeometry width="50" height="50" relative="1" as="geometry">
                        <mxPoint x="220" y="4660" as="sourcePoint"/>
                        <mxPoint x="340" y="4630" as="targetPoint"/>
                    </mxGeometry>
                </mxCell>
                <mxCell id="443" value="" style="endArrow=classic;html=1;fontSize=12;exitX=1;exitY=0.5;exitDx=0;exitDy=0;entryX=0;entryY=0.5;entryDx=0;entryDy=0;" parent="1" source="384" target="444" edge="1">
                    <mxGeometry width="50" height="50" relative="1" as="geometry">
                        <mxPoint x="380" y="4730" as="sourcePoint"/>
                        <mxPoint x="430" y="4680" as="targetPoint"/>
                    </mxGeometry>
                </mxCell>
                <mxCell id="444" value="ECRIRE" style="swimlane;whiteSpace=wrap;html=1;fontSize=12;" parent="1" vertex="1">
                    <mxGeometry x="472.5" y="4525" width="110" height="130" as="geometry"/>
                </mxCell>
                <mxCell id="446" value="&lt;u&gt;#id_ouvrage&lt;/u&gt;" style="text;html=1;align=center;verticalAlign=middle;resizable=0;points=[];autosize=1;strokeColor=none;fillColor=none;" parent="444" vertex="1">
                    <mxGeometry x="12.5" y="35" width="90" height="30" as="geometry"/>
                </mxCell>
                <mxCell id="447" value="#id_auteur&amp;nbsp;" style="text;html=1;align=center;verticalAlign=middle;resizable=0;points=[];autosize=1;strokeColor=none;fillColor=none;" parent="444" vertex="1">
                    <mxGeometry x="17.5" y="65" width="80" height="30" as="geometry"/>
                </mxCell>
                <mxCell id="448" value="" style="endArrow=classic;html=1;fontSize=12;entryX=1;entryY=0.5;entryDx=0;entryDy=0;exitX=0;exitY=0.5;exitDx=0;exitDy=0;" parent="1" source="393" target="444" edge="1">
                    <mxGeometry width="50" height="50" relative="1" as="geometry">
                        <mxPoint x="380" y="4730" as="sourcePoint"/>
                        <mxPoint x="430" y="4680" as="targetPoint"/>
                    </mxGeometry>
                </mxCell>
                <mxCell id="449" value="POUVOIR" style="swimlane;whiteSpace=wrap;html=1;fontSize=12;" parent="1" vertex="1">
                    <mxGeometry x="660" y="4780" width="120" height="130" as="geometry"/>
                </mxCell>
                <mxCell id="450" value="&lt;u&gt;&lt;font style=&quot;font-size: 12px;&quot;&gt;#id_emprunt&lt;/font&gt;&lt;/u&gt;" style="text;html=1;align=center;verticalAlign=middle;resizable=0;points=[];autosize=1;strokeColor=none;fillColor=none;fontSize=14;" parent="449" vertex="1">
                    <mxGeometry x="15" y="35" width="90" height="30" as="geometry"/>
                </mxCell>
                <mxCell id="451" value="#id_adherent" style="text;html=1;align=center;verticalAlign=middle;resizable=0;points=[];autosize=1;strokeColor=none;fillColor=none;" parent="449" vertex="1">
                    <mxGeometry x="15" y="70" width="90" height="30" as="geometry"/>
                </mxCell>
                <mxCell id="452" value="" style="endArrow=classic;html=1;fontSize=12;entryX=0;entryY=0.5;entryDx=0;entryDy=0;exitX=1;exitY=0.5;exitDx=0;exitDy=0;" parent="1" source="399" target="449" edge="1">
                    <mxGeometry width="50" height="50" relative="1" as="geometry">
                        <mxPoint x="410" y="4870" as="sourcePoint"/>
                        <mxPoint x="460" y="4820" as="targetPoint"/>
                    </mxGeometry>
                </mxCell>
                <mxCell id="453" value="" style="endArrow=classic;html=1;fontSize=12;entryX=0.5;entryY=1;entryDx=0;entryDy=0;exitX=0.5;exitY=0;exitDx=0;exitDy=0;" parent="1" source="388" target="449" edge="1">
                    <mxGeometry width="50" height="50" relative="1" as="geometry">
                        <mxPoint x="410" y="4870" as="sourcePoint"/>
                        <mxPoint x="460" y="4820" as="targetPoint"/>
                    </mxGeometry>
                </mxCell>
                <mxCell id="454" value="" style="endArrow=classic;html=1;fontSize=12;entryX=1;entryY=0.5;entryDx=0;entryDy=0;exitX=0;exitY=0.5;exitDx=0;exitDy=0;" parent="1" source="399" target="432" edge="1">
                    <mxGeometry width="50" height="50" relative="1" as="geometry">
                        <mxPoint x="410" y="4930" as="sourcePoint"/>
                        <mxPoint x="460" y="4880" as="targetPoint"/>
                    </mxGeometry>
                </mxCell>
                <mxCell id="455" value="" style="endArrow=classic;html=1;fontSize=12;exitX=1;exitY=0.5;exitDx=0;exitDy=0;entryX=0;entryY=0.5;entryDx=0;entryDy=0;" parent="1" source="423" target="432" edge="1">
                    <mxGeometry width="50" height="50" relative="1" as="geometry">
                        <mxPoint x="410" y="4930" as="sourcePoint"/>
                        <mxPoint x="460" y="4880" as="targetPoint"/>
                    </mxGeometry>
                </mxCell>
                <mxCell id="456" value="&lt;font style=&quot;font-size: 14px;&quot;&gt;&lt;u&gt;4ème cas:&lt;/u&gt;&lt;/font&gt;" style="text;html=1;align=center;verticalAlign=middle;resizable=0;points=[];autosize=1;strokeColor=none;fillColor=none;fontSize=12;" parent="1" vertex="1">
                    <mxGeometry x="155" y="5170" width="90" height="30" as="geometry"/>
                </mxCell>
                <mxCell id="457" value="&lt;u&gt;&lt;b&gt;Modèle Conceptuel de Données&lt;/b&gt;&lt;/u&gt;" style="text;html=1;align=center;verticalAlign=middle;resizable=0;points=[];autosize=1;strokeColor=none;fillColor=none;fontSize=14;" parent="1" vertex="1">
                    <mxGeometry x="270" y="1550" width="240" height="30" as="geometry"/>
                </mxCell>
                <mxCell id="459" value="&lt;font style=&quot;font-size: 14px;&quot;&gt;&lt;u&gt;&lt;b&gt;Modèle Conceptuel de Données&lt;/b&gt;&lt;/u&gt;&lt;/font&gt;" style="text;html=1;align=center;verticalAlign=middle;resizable=0;points=[];autosize=1;strokeColor=none;fillColor=none;" parent="1" vertex="1">
                    <mxGeometry x="248" y="5330" width="240" height="30" as="geometry"/>
                </mxCell>
                <mxCell id="460" value="OUVRAGE" style="swimlane;whiteSpace=wrap;html=1;" parent="1" vertex="1">
                    <mxGeometry x="228" y="5560" width="160" height="200" as="geometry"/>
                </mxCell>
                <mxCell id="461" value="&lt;u&gt;id_ouvrage&lt;/u&gt;" style="text;html=1;align=center;verticalAlign=middle;resizable=0;points=[];autosize=1;strokeColor=none;fillColor=none;" parent="460" vertex="1">
                    <mxGeometry x="40" y="30" width="80" height="30" as="geometry"/>
                </mxCell>
                <mxCell id="462" value="nbre_page" style="text;html=1;align=center;verticalAlign=middle;resizable=0;points=[];autosize=1;strokeColor=none;fillColor=none;" parent="460" vertex="1">
                    <mxGeometry x="40" y="115" width="80" height="30" as="geometry"/>
                </mxCell>
                <mxCell id="463" value="&lt;font style=&quot;font-size: 12px;&quot;&gt;titre&lt;/font&gt;" style="text;html=1;align=center;verticalAlign=middle;resizable=0;points=[];autosize=1;strokeColor=none;fillColor=none;fontSize=14;" parent="460" vertex="1">
                    <mxGeometry x="60" y="70" width="40" height="30" as="geometry"/>
                </mxCell>
                <mxCell id="464" value="ADHERENT" style="swimlane;whiteSpace=wrap;html=1;" parent="1" vertex="1">
                    <mxGeometry x="678" y="5920" width="160" height="200" as="geometry"/>
                </mxCell>
                <mxCell id="465" value="id_adherent" style="text;html=1;align=center;verticalAlign=middle;resizable=0;points=[];autosize=1;strokeColor=none;fillColor=none;" parent="464" vertex="1">
                    <mxGeometry x="35" y="40" width="90" height="30" as="geometry"/>
                </mxCell>
                <mxCell id="466" value="nom_adherent" style="text;html=1;align=center;verticalAlign=middle;resizable=0;points=[];autosize=1;strokeColor=none;fillColor=none;" parent="464" vertex="1">
                    <mxGeometry x="30" y="70" width="100" height="30" as="geometry"/>
                </mxCell>
                <mxCell id="467" value="adresse" style="text;html=1;align=center;verticalAlign=middle;resizable=0;points=[];autosize=1;strokeColor=none;fillColor=none;" parent="464" vertex="1">
                    <mxGeometry x="45" y="100" width="70" height="30" as="geometry"/>
                </mxCell>
                <mxCell id="468" value="&lt;font style=&quot;font-size: 12px;&quot;&gt;telephone&lt;/font&gt;" style="text;html=1;align=center;verticalAlign=middle;resizable=0;points=[];autosize=1;strokeColor=none;fillColor=none;fontSize=14;" parent="464" vertex="1">
                    <mxGeometry x="40" y="140" width="80" height="30" as="geometry"/>
                </mxCell>
                <mxCell id="469" value="AUTEUR" style="swimlane;whiteSpace=wrap;html=1;" parent="1" vertex="1">
                    <mxGeometry x="668" y="5550" width="160" height="200" as="geometry"/>
                </mxCell>
                <mxCell id="470" value="id_auteur&amp;nbsp;" style="text;html=1;align=center;verticalAlign=middle;resizable=0;points=[];autosize=1;strokeColor=none;fillColor=none;" parent="469" vertex="1">
                    <mxGeometry x="40" y="40" width="80" height="30" as="geometry"/>
                </mxCell>
                <mxCell id="471" value="nom_auteur" style="text;html=1;align=center;verticalAlign=middle;resizable=0;points=[];autosize=1;strokeColor=none;fillColor=none;" parent="469" vertex="1">
                    <mxGeometry x="35" y="70" width="90" height="30" as="geometry"/>
                </mxCell>
                <mxCell id="472" value="prenom" style="text;html=1;align=center;verticalAlign=middle;resizable=0;points=[];autosize=1;strokeColor=none;fillColor=none;" parent="469" vertex="1">
                    <mxGeometry x="50" y="100" width="60" height="30" as="geometry"/>
                </mxCell>
                <mxCell id="473" value="ECRIRE" style="ellipse;whiteSpace=wrap;html=1;" parent="1" vertex="1">
                    <mxGeometry x="473" y="5610" width="120" height="80" as="geometry"/>
                </mxCell>
                <mxCell id="474" value="" style="endArrow=none;html=1;fontSize=12;entryX=0;entryY=0.5;entryDx=0;entryDy=0;exitX=1;exitY=0.5;exitDx=0;exitDy=0;" parent="1" source="473" target="469" edge="1">
                    <mxGeometry width="50" height="50" relative="1" as="geometry">
                        <mxPoint x="438" y="6140" as="sourcePoint"/>
                        <mxPoint x="488" y="6090" as="targetPoint"/>
                    </mxGeometry>
                </mxCell>
                <mxCell id="475" value="Emprunt" style="swimlane;whiteSpace=wrap;html=1;fontSize=14;direction=east;" parent="1" vertex="1">
                    <mxGeometry x="438" y="5730" width="160" height="200" as="geometry">
                        <mxRectangle x="430" y="3580" width="100" height="30" as="alternateBounds"/>
                    </mxGeometry>
                </mxCell>
                <mxCell id="476" value="&lt;u&gt;id_emprunt&lt;/u&gt;" style="text;html=1;align=center;verticalAlign=middle;resizable=0;points=[];autosize=1;strokeColor=none;fillColor=none;fontSize=14;" parent="475" vertex="1">
                    <mxGeometry x="40" y="40" width="90" height="30" as="geometry"/>
                </mxCell>
                <mxCell id="477" value="date_emprunt" style="text;html=1;align=center;verticalAlign=middle;resizable=0;points=[];autosize=1;strokeColor=none;fillColor=none;fontSize=14;" parent="475" vertex="1">
                    <mxGeometry x="30" y="80" width="110" height="30" as="geometry"/>
                </mxCell>
                <mxCell id="478" value="delai" style="text;html=1;align=center;verticalAlign=middle;resizable=0;points=[];autosize=1;strokeColor=none;fillColor=none;fontSize=12;" parent="475" vertex="1">
                    <mxGeometry x="55" y="140" width="50" height="30" as="geometry"/>
                </mxCell>
                <mxCell id="479" value="penalite" style="text;html=1;align=center;verticalAlign=middle;resizable=0;points=[];autosize=1;strokeColor=none;fillColor=none;fontSize=12;" parent="475" vertex="1">
                    <mxGeometry x="45" y="170" width="70" height="30" as="geometry"/>
                </mxCell>
                <mxCell id="527" value="date_retour" style="text;html=1;align=center;verticalAlign=middle;resizable=0;points=[];autosize=1;strokeColor=none;fillColor=none;" parent="475" vertex="1">
                    <mxGeometry x="45" y="110" width="80" height="30" as="geometry"/>
                </mxCell>
                <mxCell id="480" value="FAIRE" style="ellipse;whiteSpace=wrap;html=1;fontSize=14;" parent="1" vertex="1">
                    <mxGeometry x="238" y="5915" width="120" height="80" as="geometry"/>
                </mxCell>
                <mxCell id="481" value="POUVOIR" style="ellipse;whiteSpace=wrap;html=1;fontSize=14;" parent="1" vertex="1">
                    <mxGeometry x="458" y="5990" width="120" height="80" as="geometry"/>
                </mxCell>
                <mxCell id="482" value="Mot_Cle" style="swimlane;whiteSpace=wrap;html=1;fontSize=12;" parent="1" vertex="1">
                    <mxGeometry x="28" y="5460" width="160" height="120" as="geometry"/>
                </mxCell>
                <mxCell id="483" value="libelle" style="text;html=1;align=center;verticalAlign=middle;resizable=0;points=[];autosize=1;strokeColor=none;fillColor=none;fontSize=12;" parent="482" vertex="1">
                    <mxGeometry x="55" y="70" width="50" height="30" as="geometry"/>
                </mxCell>
                <mxCell id="484" value="id_motCle" style="text;html=1;align=center;verticalAlign=middle;resizable=0;points=[];autosize=1;strokeColor=none;fillColor=none;fontSize=12;" parent="482" vertex="1">
                    <mxGeometry x="40" y="40" width="80" height="30" as="geometry"/>
                </mxCell>
                <mxCell id="485" value="REFERENCER" style="ellipse;whiteSpace=wrap;html=1;fontSize=12;" parent="1" vertex="1">
                    <mxGeometry x="28" y="5610" width="120" height="80" as="geometry"/>
                </mxCell>
                <mxCell id="486" value="" style="endArrow=none;html=1;fontSize=12;" parent="1" source="485" edge="1">
                    <mxGeometry width="50" height="50" relative="1" as="geometry">
                        <mxPoint x="398" y="5730" as="sourcePoint"/>
                        <mxPoint x="88" y="5580" as="targetPoint"/>
                    </mxGeometry>
                </mxCell>
                <mxCell id="487" value="" style="endArrow=none;html=1;fontSize=12;exitX=1;exitY=0.5;exitDx=0;exitDy=0;" parent="1" source="485" edge="1">
                    <mxGeometry width="50" height="50" relative="1" as="geometry">
                        <mxPoint x="398" y="5730" as="sourcePoint"/>
                        <mxPoint x="228" y="5650" as="targetPoint"/>
                    </mxGeometry>
                </mxCell>
                <mxCell id="488" value="" style="endArrow=none;html=1;fontSize=12;entryX=1;entryY=0.5;entryDx=0;entryDy=0;exitX=0;exitY=0.5;exitDx=0;exitDy=0;" parent="1" source="480" target="499" edge="1">
                    <mxGeometry width="50" height="50" relative="1" as="geometry">
                        <mxPoint x="398" y="5730" as="sourcePoint"/>
                        <mxPoint x="448" y="5680" as="targetPoint"/>
                    </mxGeometry>
                </mxCell>
                <mxCell id="489" value="" style="endArrow=none;html=1;fontSize=12;exitX=0;exitY=0.5;exitDx=0;exitDy=0;" parent="1" source="473" edge="1">
                    <mxGeometry width="50" height="50" relative="1" as="geometry">
                        <mxPoint x="258" y="5770" as="sourcePoint"/>
                        <mxPoint x="388" y="5650" as="targetPoint"/>
                    </mxGeometry>
                </mxCell>
                <mxCell id="490" value="" style="endArrow=none;html=1;fontSize=12;entryX=0.5;entryY=1;entryDx=0;entryDy=0;exitX=0.5;exitY=0;exitDx=0;exitDy=0;" parent="1" source="481" target="475" edge="1">
                    <mxGeometry width="50" height="50" relative="1" as="geometry">
                        <mxPoint x="368" y="6030" as="sourcePoint"/>
                        <mxPoint x="418" y="5980" as="targetPoint"/>
                    </mxGeometry>
                </mxCell>
                <mxCell id="491" value="1,N" style="text;html=1;align=center;verticalAlign=middle;resizable=0;points=[];autosize=1;strokeColor=none;fillColor=none;fontSize=12;" parent="1" vertex="1">
                    <mxGeometry x="78" y="5580" width="40" height="30" as="geometry"/>
                </mxCell>
                <mxCell id="492" value="1,1" style="text;html=1;align=center;verticalAlign=middle;resizable=0;points=[];autosize=1;strokeColor=none;fillColor=none;fontSize=12;" parent="1" vertex="1">
                    <mxGeometry x="188" y="5625" width="40" height="30" as="geometry"/>
                </mxCell>
                <mxCell id="493" value="1,N" style="text;html=1;align=center;verticalAlign=middle;resizable=0;points=[];autosize=1;strokeColor=none;fillColor=none;fontSize=12;" parent="1" vertex="1">
                    <mxGeometry x="393" y="5625" width="40" height="30" as="geometry"/>
                </mxCell>
                <mxCell id="494" value="1,N" style="text;html=1;align=center;verticalAlign=middle;resizable=0;points=[];autosize=1;strokeColor=none;fillColor=none;fontSize=12;" parent="1" vertex="1">
                    <mxGeometry x="633" y="5620" width="40" height="30" as="geometry"/>
                </mxCell>
                <mxCell id="495" value="1,1" style="text;html=1;align=center;verticalAlign=middle;resizable=0;points=[];autosize=1;strokeColor=none;fillColor=none;fontSize=12;" parent="1" vertex="1">
                    <mxGeometry x="403" y="5800" width="40" height="30" as="geometry"/>
                </mxCell>
                <mxCell id="496" value="" style="endArrow=none;html=1;fontSize=12;entryX=1;entryY=0.5;entryDx=0;entryDy=0;" parent="1" target="481" edge="1">
                    <mxGeometry width="50" height="50" relative="1" as="geometry">
                        <mxPoint x="678" y="6030" as="sourcePoint"/>
                        <mxPoint x="488" y="5960" as="targetPoint"/>
                    </mxGeometry>
                </mxCell>
                <mxCell id="497" value="1,N" style="text;html=1;align=center;verticalAlign=middle;resizable=0;points=[];autosize=1;strokeColor=none;fillColor=none;fontSize=12;" parent="1" vertex="1">
                    <mxGeometry x="478" y="5930" width="40" height="30" as="geometry"/>
                </mxCell>
                <mxCell id="498" value="1,N" style="text;html=1;align=center;verticalAlign=middle;resizable=0;points=[];autosize=1;strokeColor=none;fillColor=none;fontSize=12;" parent="1" vertex="1">
                    <mxGeometry x="638" y="6000" width="40" height="30" as="geometry"/>
                </mxCell>
                <mxCell id="499" value="exemplaire" style="swimlane;whiteSpace=wrap;html=1;fontSize=14;" parent="1" vertex="1">
                    <mxGeometry x="13" y="5910" width="160" height="90" as="geometry"/>
                </mxCell>
                <mxCell id="500" value="id_exemplaire" style="text;html=1;align=center;verticalAlign=middle;resizable=0;points=[];autosize=1;strokeColor=none;fillColor=none;fontSize=12;" parent="499" vertex="1">
                    <mxGeometry x="30" y="30" width="100" height="30" as="geometry"/>
                </mxCell>
                <mxCell id="501" value="avoir" style="ellipse;whiteSpace=wrap;html=1;fontSize=14;" parent="1" vertex="1">
                    <mxGeometry x="28" y="5760" width="120" height="80" as="geometry"/>
                </mxCell>
                <mxCell id="502" value="" style="shape=partialRectangle;whiteSpace=wrap;html=1;bottom=0;right=0;fillColor=none;fontSize=14;direction=east;" parent="1" vertex="1">
                    <mxGeometry x="88" y="5700" width="140" height="60" as="geometry"/>
                </mxCell>
                <mxCell id="503" value="" style="endArrow=none;html=1;fontSize=14;entryX=0.5;entryY=1;entryDx=0;entryDy=0;" parent="1" target="501" edge="1">
                    <mxGeometry width="50" height="50" relative="1" as="geometry">
                        <mxPoint x="88" y="5910" as="sourcePoint"/>
                        <mxPoint x="378" y="5800" as="targetPoint"/>
                    </mxGeometry>
                </mxCell>
                <mxCell id="504" value="&lt;font style=&quot;font-size: 12px;&quot;&gt;1,N&lt;/font&gt;" style="text;html=1;align=center;verticalAlign=middle;resizable=0;points=[];autosize=1;strokeColor=none;fillColor=none;fontSize=14;" parent="1" vertex="1">
                    <mxGeometry x="193" y="5700" width="40" height="30" as="geometry"/>
                </mxCell>
                <mxCell id="505" value="1,1" style="text;html=1;align=center;verticalAlign=middle;resizable=0;points=[];autosize=1;strokeColor=none;fillColor=none;fontSize=12;" parent="1" vertex="1">
                    <mxGeometry x="88" y="5870" width="40" height="30" as="geometry"/>
                </mxCell>
                <mxCell id="506" value="" style="shape=partialRectangle;whiteSpace=wrap;html=1;bottom=0;right=0;fillColor=none;fontSize=12;" parent="1" vertex="1">
                    <mxGeometry x="298" y="5825" width="140" height="90" as="geometry"/>
                </mxCell>
                <mxCell id="507" value="1,1" style="text;html=1;align=center;verticalAlign=middle;resizable=0;points=[];autosize=1;strokeColor=none;fillColor=none;fontSize=12;" parent="1" vertex="1">
                    <mxGeometry x="163" y="5920" width="40" height="30" as="geometry"/>
                </mxCell>
                <mxCell id="516" value="&lt;font style=&quot;font-size: 12px;&quot;&gt;ANTENNE LOCALE&lt;/font&gt;" style="swimlane;whiteSpace=wrap;html=1;fontSize=14;" parent="1" vertex="1">
                    <mxGeometry x="225" y="6100" width="160" height="120" as="geometry"/>
                </mxCell>
                <mxCell id="517" value="id_antenne" style="text;html=1;align=center;verticalAlign=middle;resizable=0;points=[];autosize=1;strokeColor=none;fillColor=none;fontSize=12;" parent="516" vertex="1">
                    <mxGeometry x="40" y="45" width="80" height="30" as="geometry"/>
                </mxCell>
                <mxCell id="518" value="nom_antenne" style="text;html=1;align=center;verticalAlign=middle;resizable=0;points=[];autosize=1;strokeColor=none;fillColor=none;fontSize=12;" parent="516" vertex="1">
                    <mxGeometry x="30" y="75" width="100" height="30" as="geometry"/>
                </mxCell>
                <mxCell id="520" value="" style="endArrow=none;html=1;fontSize=12;entryX=0;entryY=0.5;entryDx=0;entryDy=0;exitX=1;exitY=0.5;exitDx=0;exitDy=0;" parent="1" source="522" target="516" edge="1">
                    <mxGeometry width="50" height="50" relative="1" as="geometry">
                        <mxPoint x="295" y="6300" as="sourcePoint"/>
                        <mxPoint x="395" y="6350" as="targetPoint"/>
                    </mxGeometry>
                </mxCell>
                <mxCell id="521" value="1,N" style="text;html=1;align=center;verticalAlign=middle;resizable=0;points=[];autosize=1;strokeColor=none;fillColor=none;fontSize=12;" parent="1" vertex="1">
                    <mxGeometry x="193" y="6140" width="40" height="30" as="geometry"/>
                </mxCell>
                <mxCell id="522" value="&lt;font size=&quot;3&quot;&gt;appartenir&lt;/font&gt;" style="ellipse;whiteSpace=wrap;html=1;fontSize=12;" parent="1" vertex="1">
                    <mxGeometry x="30" y="6120" width="120" height="80" as="geometry"/>
                </mxCell>
                <mxCell id="523" value="" style="endArrow=none;html=1;fontSize=12;exitX=0.5;exitY=0;exitDx=0;exitDy=0;entryX=0.5;entryY=1;entryDx=0;entryDy=0;" parent="1" source="522" edge="1">
                    <mxGeometry width="50" height="50" relative="1" as="geometry">
                        <mxPoint x="89" y="6060" as="sourcePoint"/>
                        <mxPoint x="91" y="6000" as="targetPoint"/>
                    </mxGeometry>
                </mxCell>
                <mxCell id="524" value="1,1" style="text;html=1;align=center;verticalAlign=middle;resizable=0;points=[];autosize=1;strokeColor=none;fillColor=none;fontSize=12;" parent="1" vertex="1">
                    <mxGeometry x="90" y="5995" width="40" height="30" as="geometry"/>
                </mxCell>
                <mxCell id="529" value="telephone" style="text;html=1;align=center;verticalAlign=middle;resizable=0;points=[];autosize=1;strokeColor=none;fillColor=none;" vertex="1" parent="1">
                    <mxGeometry x="95" y="2515" width="80" height="30" as="geometry"/>
                </mxCell>
                <mxCell id="609" value="&lt;b&gt;&lt;u&gt;Graphe de dépendance fonctionnelle&lt;/u&gt;&lt;/b&gt;" style="text;html=1;align=center;verticalAlign=middle;resizable=0;points=[];autosize=1;strokeColor=none;fillColor=none;fontSize=14;" vertex="1" parent="1">
                    <mxGeometry x="238" y="6270" width="270" height="30" as="geometry"/>
                </mxCell>
                <mxCell id="658" value="&lt;font style=&quot;font-size: 14px;&quot;&gt;id_emprunt&lt;/font&gt;" style="text;html=1;align=center;verticalAlign=middle;resizable=0;points=[];autosize=1;strokeColor=none;fillColor=none;" vertex="1" parent="1">
                    <mxGeometry x="325" y="6370" width="90" height="30" as="geometry"/>
                </mxCell>
                <mxCell id="659" value="date_emprunt" style="text;html=1;align=center;verticalAlign=middle;resizable=0;points=[];autosize=1;strokeColor=none;fillColor=none;fontSize=14;" vertex="1" parent="1">
                    <mxGeometry x="150" y="6430" width="110" height="30" as="geometry"/>
                </mxCell>
                <mxCell id="660" value="delai" style="text;html=1;align=center;verticalAlign=middle;resizable=0;points=[];autosize=1;strokeColor=none;fillColor=none;fontSize=14;" vertex="1" parent="1">
                    <mxGeometry x="380" y="6430" width="50" height="30" as="geometry"/>
                </mxCell>
                <mxCell id="661" value="id_exemplaire" style="text;html=1;align=center;verticalAlign=middle;resizable=0;points=[];autosize=1;strokeColor=none;fillColor=none;fontSize=14;" vertex="1" parent="1">
                    <mxGeometry x="265" y="6430" width="110" height="30" as="geometry"/>
                </mxCell>
                <mxCell id="662" value="id_adherent" style="text;html=1;align=center;verticalAlign=middle;resizable=0;points=[];autosize=1;strokeColor=none;fillColor=none;fontSize=14;" vertex="1" parent="1">
                    <mxGeometry x="555" y="6430" width="100" height="30" as="geometry"/>
                </mxCell>
                <mxCell id="663" value="id_ouvrage" style="text;html=1;align=center;verticalAlign=middle;resizable=0;points=[];autosize=1;strokeColor=none;fillColor=none;fontSize=14;" vertex="1" parent="1">
                    <mxGeometry x="275" y="6495" width="90" height="30" as="geometry"/>
                </mxCell>
                <mxCell id="664" value="titre" style="text;html=1;align=center;verticalAlign=middle;resizable=0;points=[];autosize=1;strokeColor=none;fillColor=none;fontSize=14;" vertex="1" parent="1">
                    <mxGeometry x="160" y="6550" width="50" height="30" as="geometry"/>
                </mxCell>
                <mxCell id="665" value="nbre_page" style="text;html=1;align=center;verticalAlign=middle;resizable=0;points=[];autosize=1;strokeColor=none;fillColor=none;fontSize=14;" vertex="1" parent="1">
                    <mxGeometry x="225" y="6550" width="90" height="30" as="geometry"/>
                </mxCell>
                <mxCell id="666" value="id_auteur" style="text;html=1;align=center;verticalAlign=middle;resizable=0;points=[];autosize=1;strokeColor=none;fillColor=none;fontSize=14;" vertex="1" parent="1">
                    <mxGeometry x="330" y="6550" width="80" height="30" as="geometry"/>
                </mxCell>
                <mxCell id="667" value="id_motCle" style="text;html=1;align=center;verticalAlign=middle;resizable=0;points=[];autosize=1;strokeColor=none;fillColor=none;fontSize=14;" vertex="1" parent="1">
                    <mxGeometry x="415" y="6550" width="90" height="30" as="geometry"/>
                </mxCell>
                <mxCell id="683" value="" style="edgeStyle=none;html=1;fontSize=14;" edge="1" parent="1" source="668" target="663">
                    <mxGeometry relative="1" as="geometry"/>
                </mxCell>
                <mxCell id="668" value="&lt;font style=&quot;font-size: 14px;&quot;&gt;nom_adherent&lt;/font&gt;" style="text;html=1;align=center;verticalAlign=middle;resizable=0;points=[];autosize=1;strokeColor=none;fillColor=none;fontSize=12;" vertex="1" parent="1">
                    <mxGeometry x="470" y="6495" width="110" height="30" as="geometry"/>
                </mxCell>
                <mxCell id="669" value="adresse" style="text;html=1;align=center;verticalAlign=middle;resizable=0;points=[];autosize=1;strokeColor=none;fillColor=none;fontSize=14;" vertex="1" parent="1">
                    <mxGeometry x="580" y="6495" width="70" height="30" as="geometry"/>
                </mxCell>
                <mxCell id="670" value="" style="endArrow=classic;html=1;fontSize=14;exitX=0.167;exitY=1;exitDx=0;exitDy=0;exitPerimeter=0;entryX=0.497;entryY=0.064;entryDx=0;entryDy=0;entryPerimeter=0;" edge="1" source="658" target="659" parent="1">
                    <mxGeometry width="50" height="50" relative="1" as="geometry">
                        <mxPoint x="320" y="6560" as="sourcePoint"/>
                        <mxPoint x="370" y="6510" as="targetPoint"/>
                    </mxGeometry>
                </mxCell>
                <mxCell id="671" value="" style="endArrow=classic;html=1;fontSize=14;exitX=0.345;exitY=1.092;exitDx=0;exitDy=0;exitPerimeter=0;entryX=0.5;entryY=0;entryDx=0;entryDy=0;entryPerimeter=0;" edge="1" source="658" target="661" parent="1">
                    <mxGeometry width="50" height="50" relative="1" as="geometry">
                        <mxPoint x="320" y="6560" as="sourcePoint"/>
                        <mxPoint x="370" y="6510" as="targetPoint"/>
                    </mxGeometry>
                </mxCell>
                <mxCell id="672" value="" style="endArrow=classic;html=1;fontSize=14;exitX=0.654;exitY=1.069;exitDx=0;exitDy=0;exitPerimeter=0;" edge="1" source="658" parent="1">
                    <mxGeometry width="50" height="50" relative="1" as="geometry">
                        <mxPoint x="320" y="6560" as="sourcePoint"/>
                        <mxPoint x="400" y="6430" as="targetPoint"/>
                    </mxGeometry>
                </mxCell>
                <mxCell id="673" value="" style="endArrow=classic;html=1;fontSize=14;exitX=1.039;exitY=0.999;exitDx=0;exitDy=0;exitPerimeter=0;entryX=0.274;entryY=0.041;entryDx=0;entryDy=0;entryPerimeter=0;" edge="1" source="658" target="662" parent="1">
                    <mxGeometry width="50" height="50" relative="1" as="geometry">
                        <mxPoint x="320" y="6560" as="sourcePoint"/>
                        <mxPoint x="370" y="6510" as="targetPoint"/>
                    </mxGeometry>
                </mxCell>
                <mxCell id="674" value="" style="endArrow=classic;html=1;fontSize=14;exitX=0.48;exitY=1.013;exitDx=0;exitDy=0;exitPerimeter=0;" edge="1" source="661" parent="1">
                    <mxGeometry width="50" height="50" relative="1" as="geometry">
                        <mxPoint x="320" y="6560" as="sourcePoint"/>
                        <mxPoint x="318" y="6500" as="targetPoint"/>
                    </mxGeometry>
                </mxCell>
                <mxCell id="675" value="" style="endArrow=classic;html=1;fontSize=14;exitX=0.35;exitY=1;exitDx=0;exitDy=0;exitPerimeter=0;entryX=0.455;entryY=0.167;entryDx=0;entryDy=0;entryPerimeter=0;" edge="1" source="662" target="668" parent="1">
                    <mxGeometry width="50" height="50" relative="1" as="geometry">
                        <mxPoint x="320" y="6560" as="sourcePoint"/>
                        <mxPoint x="370" y="6510" as="targetPoint"/>
                    </mxGeometry>
                </mxCell>
                <mxCell id="676" value="" style="endArrow=classic;html=1;fontSize=14;exitX=0.538;exitY=1.106;exitDx=0;exitDy=0;exitPerimeter=0;entryX=0.429;entryY=0.167;entryDx=0;entryDy=0;entryPerimeter=0;" edge="1" source="662" target="669" parent="1">
                    <mxGeometry width="50" height="50" relative="1" as="geometry">
                        <mxPoint x="320" y="6560" as="sourcePoint"/>
                        <mxPoint x="370" y="6510" as="targetPoint"/>
                    </mxGeometry>
                </mxCell>
                <mxCell id="677" value="" style="endArrow=classic;html=1;fontSize=14;exitX=0.705;exitY=0.967;exitDx=0;exitDy=0;exitPerimeter=0;entryX=0.468;entryY=0.05;entryDx=0;entryDy=0;entryPerimeter=0;" edge="1" source="662" parent="1">
                    <mxGeometry width="50" height="50" relative="1" as="geometry">
                        <mxPoint x="320" y="6560" as="sourcePoint"/>
                        <mxPoint x="692.1199999999999" y="6496.5" as="targetPoint"/>
                    </mxGeometry>
                </mxCell>
                <mxCell id="678" value="" style="endArrow=classic;html=1;fontSize=14;exitX=0.167;exitY=0.976;exitDx=0;exitDy=0;exitPerimeter=0;" edge="1" source="663" target="664" parent="1">
                    <mxGeometry width="50" height="50" relative="1" as="geometry">
                        <mxPoint x="320" y="6560" as="sourcePoint"/>
                        <mxPoint x="370" y="6510" as="targetPoint"/>
                    </mxGeometry>
                </mxCell>
                <mxCell id="679" value="" style="endArrow=classic;html=1;fontSize=14;" edge="1" target="665" parent="1">
                    <mxGeometry width="50" height="50" relative="1" as="geometry">
                        <mxPoint x="320" y="6520" as="sourcePoint"/>
                        <mxPoint x="370" y="6510" as="targetPoint"/>
                    </mxGeometry>
                </mxCell>
                <mxCell id="680" value="" style="endArrow=classic;html=1;fontSize=14;exitX=0.661;exitY=0.999;exitDx=0;exitDy=0;exitPerimeter=0;" edge="1" source="663" parent="1">
                    <mxGeometry width="50" height="50" relative="1" as="geometry">
                        <mxPoint x="320" y="6560" as="sourcePoint"/>
                        <mxPoint x="370" y="6560" as="targetPoint"/>
                    </mxGeometry>
                </mxCell>
                <mxCell id="681" value="" style="endArrow=classic;html=1;fontSize=14;" edge="1" source="663" parent="1">
                    <mxGeometry width="50" height="50" relative="1" as="geometry">
                        <mxPoint x="320" y="6560" as="sourcePoint"/>
                        <mxPoint x="440" y="6550" as="targetPoint"/>
                    </mxGeometry>
                </mxCell>
                <mxCell id="682" value="telephone" style="text;html=1;align=center;verticalAlign=middle;resizable=0;points=[];autosize=1;strokeColor=none;fillColor=none;fontSize=14;" vertex="1" parent="1">
                    <mxGeometry x="655" y="6495" width="90" height="30" as="geometry"/>
                </mxCell>
                <mxCell id="684" value="" style="endArrow=classic;html=1;fontSize=14;exitX=0.318;exitY=1.101;exitDx=0;exitDy=0;exitPerimeter=0;" edge="1" parent="1" source="661">
                    <mxGeometry width="50" height="50" relative="1" as="geometry">
                        <mxPoint x="420" y="6550" as="sourcePoint"/>
                        <mxPoint x="220" y="6500" as="targetPoint"/>
                    </mxGeometry>
                </mxCell>
                <mxCell id="685" value="&lt;font style=&quot;font-size: 14px;&quot;&gt;id_antenne&lt;/font&gt;" style="text;html=1;align=center;verticalAlign=middle;resizable=0;points=[];autosize=1;strokeColor=none;fillColor=none;fontSize=14;" vertex="1" parent="1">
                    <mxGeometry x="165" y="6495" width="90" height="30" as="geometry"/>
                </mxCell>
                <mxCell id="686" value="" style="endArrow=classic;html=1;fontSize=14;exitX=0.141;exitY=1.041;exitDx=0;exitDy=0;exitPerimeter=0;entryX=0.804;entryY=0.018;entryDx=0;entryDy=0;entryPerimeter=0;" edge="1" parent="1" source="685" target="687">
                    <mxGeometry width="50" height="50" relative="1" as="geometry">
                        <mxPoint x="420" y="6610" as="sourcePoint"/>
                        <mxPoint x="90" y="6550" as="targetPoint"/>
                    </mxGeometry>
                </mxCell>
                <mxCell id="687" value="nom_antenne" style="text;html=1;align=center;verticalAlign=middle;resizable=0;points=[];autosize=1;strokeColor=none;fillColor=none;fontSize=14;" vertex="1" parent="1">
                    <mxGeometry x="33" y="6550" width="110" height="30" as="geometry"/>
                </mxCell>
                <mxCell id="688" value="&lt;b&gt;&lt;u&gt;MLD&lt;/u&gt;&lt;/b&gt;" style="text;html=1;align=center;verticalAlign=middle;resizable=0;points=[];autosize=1;strokeColor=none;fillColor=none;fontSize=14;" vertex="1" parent="1">
                    <mxGeometry x="325" y="6610" width="50" height="30" as="geometry"/>
                </mxCell>
                <mxCell id="689" value="OUVRAGE" style="swimlane;whiteSpace=wrap;html=1;" vertex="1" parent="1">
                    <mxGeometry x="225" y="6770" width="160" height="200" as="geometry"/>
                </mxCell>
                <mxCell id="690" value="&lt;u&gt;id_ouvrage&lt;/u&gt;" style="text;html=1;align=center;verticalAlign=middle;resizable=0;points=[];autosize=1;strokeColor=none;fillColor=none;" vertex="1" parent="689">
                    <mxGeometry x="40" y="40" width="80" height="30" as="geometry"/>
                </mxCell>
                <mxCell id="691" value="nbre_page" style="text;html=1;align=center;verticalAlign=middle;resizable=0;points=[];autosize=1;strokeColor=none;fillColor=none;" vertex="1" parent="689">
                    <mxGeometry x="40" y="115" width="80" height="30" as="geometry"/>
                </mxCell>
                <mxCell id="692" value="&lt;font style=&quot;font-size: 12px;&quot;&gt;titre&lt;/font&gt;" style="text;html=1;align=center;verticalAlign=middle;resizable=0;points=[];autosize=1;strokeColor=none;fillColor=none;fontSize=14;" vertex="1" parent="689">
                    <mxGeometry x="60" y="70" width="40" height="30" as="geometry"/>
                </mxCell>
                <mxCell id="754" value="#id_motCle" style="text;html=1;align=center;verticalAlign=middle;resizable=0;points=[];autosize=1;strokeColor=none;fillColor=none;fontSize=12;" vertex="1" parent="689">
                    <mxGeometry x="40" y="150" width="80" height="30" as="geometry"/>
                </mxCell>
                <mxCell id="693" value="ADHERENT" style="swimlane;whiteSpace=wrap;html=1;" vertex="1" parent="1">
                    <mxGeometry x="680" y="7055" width="160" height="200" as="geometry"/>
                </mxCell>
                <mxCell id="694" value="&lt;u&gt;id_adherent&lt;/u&gt;" style="text;html=1;align=center;verticalAlign=middle;resizable=0;points=[];autosize=1;strokeColor=none;fillColor=none;" vertex="1" parent="693">
                    <mxGeometry x="35" y="40" width="90" height="30" as="geometry"/>
                </mxCell>
                <mxCell id="695" value="nom_adherent" style="text;html=1;align=center;verticalAlign=middle;resizable=0;points=[];autosize=1;strokeColor=none;fillColor=none;" vertex="1" parent="693">
                    <mxGeometry x="30" y="70" width="100" height="30" as="geometry"/>
                </mxCell>
                <mxCell id="696" value="adresse" style="text;html=1;align=center;verticalAlign=middle;resizable=0;points=[];autosize=1;strokeColor=none;fillColor=none;" vertex="1" parent="693">
                    <mxGeometry x="45" y="100" width="70" height="30" as="geometry"/>
                </mxCell>
                <mxCell id="697" value="&lt;font style=&quot;font-size: 12px;&quot;&gt;telephone&lt;/font&gt;" style="text;html=1;align=center;verticalAlign=middle;resizable=0;points=[];autosize=1;strokeColor=none;fillColor=none;fontSize=14;" vertex="1" parent="693">
                    <mxGeometry x="40" y="140" width="80" height="30" as="geometry"/>
                </mxCell>
                <mxCell id="698" value="AUTEUR" style="swimlane;whiteSpace=wrap;html=1;" vertex="1" parent="1">
                    <mxGeometry x="668" y="6770" width="160" height="200" as="geometry"/>
                </mxCell>
                <mxCell id="699" value="id_auteur&amp;nbsp;" style="text;html=1;align=center;verticalAlign=middle;resizable=0;points=[];autosize=1;strokeColor=none;fillColor=none;" vertex="1" parent="698">
                    <mxGeometry x="40" y="40" width="80" height="30" as="geometry"/>
                </mxCell>
                <mxCell id="700" value="nom_auteur" style="text;html=1;align=center;verticalAlign=middle;resizable=0;points=[];autosize=1;strokeColor=none;fillColor=none;" vertex="1" parent="698">
                    <mxGeometry x="35" y="70" width="90" height="30" as="geometry"/>
                </mxCell>
                <mxCell id="701" value="prenom" style="text;html=1;align=center;verticalAlign=middle;resizable=0;points=[];autosize=1;strokeColor=none;fillColor=none;" vertex="1" parent="698">
                    <mxGeometry x="50" y="100" width="60" height="30" as="geometry"/>
                </mxCell>
                <mxCell id="704" value="Emprunt" style="swimlane;whiteSpace=wrap;html=1;fontSize=14;direction=east;" vertex="1" parent="1">
                    <mxGeometry x="320" y="7027.5" width="160" height="255" as="geometry">
                        <mxRectangle x="430" y="3580" width="100" height="30" as="alternateBounds"/>
                    </mxGeometry>
                </mxCell>
                <mxCell id="705" value="&lt;u&gt;id_emprunt&lt;/u&gt;" style="text;html=1;align=center;verticalAlign=middle;resizable=0;points=[];autosize=1;strokeColor=none;fillColor=none;fontSize=14;" vertex="1" parent="704">
                    <mxGeometry x="40" y="40" width="90" height="30" as="geometry"/>
                </mxCell>
                <mxCell id="706" value="date_emprunt" style="text;html=1;align=center;verticalAlign=middle;resizable=0;points=[];autosize=1;strokeColor=none;fillColor=none;fontSize=14;" vertex="1" parent="704">
                    <mxGeometry x="30" y="80" width="110" height="30" as="geometry"/>
                </mxCell>
                <mxCell id="707" value="delai" style="text;html=1;align=center;verticalAlign=middle;resizable=0;points=[];autosize=1;strokeColor=none;fillColor=none;fontSize=12;" vertex="1" parent="704">
                    <mxGeometry x="55" y="140" width="50" height="30" as="geometry"/>
                </mxCell>
                <mxCell id="709" value="date_retour" style="text;html=1;align=center;verticalAlign=middle;resizable=0;points=[];autosize=1;strokeColor=none;fillColor=none;" vertex="1" parent="704">
                    <mxGeometry x="45" y="110" width="80" height="30" as="geometry"/>
                </mxCell>
                <mxCell id="749" value="#id_exemplaire" style="text;html=1;align=center;verticalAlign=middle;resizable=0;points=[];autosize=1;strokeColor=none;fillColor=none;fontSize=12;" vertex="1" parent="704">
                    <mxGeometry x="35" y="175" width="100" height="30" as="geometry"/>
                </mxCell>
                <mxCell id="750" value="#id_adherent" style="text;html=1;align=center;verticalAlign=middle;resizable=0;points=[];autosize=1;strokeColor=none;fillColor=none;" vertex="1" parent="704">
                    <mxGeometry x="40" y="205" width="90" height="30" as="geometry"/>
                </mxCell>
                <mxCell id="712" value="Mot_Cle" style="swimlane;whiteSpace=wrap;html=1;fontSize=12;" vertex="1" parent="1">
                    <mxGeometry x="10" y="6670" width="160" height="120" as="geometry"/>
                </mxCell>
                <mxCell id="713" value="libelle" style="text;html=1;align=center;verticalAlign=middle;resizable=0;points=[];autosize=1;strokeColor=none;fillColor=none;fontSize=12;" vertex="1" parent="712">
                    <mxGeometry x="55" y="70" width="50" height="30" as="geometry"/>
                </mxCell>
                <mxCell id="714" value="id_motCle" style="text;html=1;align=center;verticalAlign=middle;resizable=0;points=[];autosize=1;strokeColor=none;fillColor=none;fontSize=12;" vertex="1" parent="712">
                    <mxGeometry x="40" y="40" width="80" height="30" as="geometry"/>
                </mxCell>
                <mxCell id="729" value="exemplaire" style="swimlane;whiteSpace=wrap;html=1;fontSize=14;" vertex="1" parent="1">
                    <mxGeometry x="10" y="7100" width="160" height="110" as="geometry"/>
                </mxCell>
                <mxCell id="730" value="&lt;u&gt;id_exemplaire&lt;/u&gt;" style="text;html=1;align=center;verticalAlign=middle;resizable=0;points=[];autosize=1;strokeColor=none;fillColor=none;fontSize=12;" vertex="1" parent="729">
                    <mxGeometry x="30" y="30" width="100" height="30" as="geometry"/>
                </mxCell>
                <mxCell id="747" value="#id_antenne" style="text;html=1;align=center;verticalAlign=middle;resizable=0;points=[];autosize=1;strokeColor=none;fillColor=none;fontSize=12;" vertex="1" parent="729">
                    <mxGeometry x="35" y="55" width="90" height="30" as="geometry"/>
                </mxCell>
                <mxCell id="748" value="#id_ouvrage" style="text;html=1;align=center;verticalAlign=middle;resizable=0;points=[];autosize=1;strokeColor=none;fillColor=none;" vertex="1" parent="729">
                    <mxGeometry x="35" y="80" width="90" height="30" as="geometry"/>
                </mxCell>
                <mxCell id="738" value="&lt;font style=&quot;font-size: 12px;&quot;&gt;ANTENNE LOCALE&lt;/font&gt;" style="swimlane;whiteSpace=wrap;html=1;fontSize=14;" vertex="1" parent="1">
                    <mxGeometry x="8" y="7330" width="160" height="120" as="geometry"/>
                </mxCell>
                <mxCell id="739" value="&lt;u&gt;id_antenne&lt;/u&gt;" style="text;html=1;align=center;verticalAlign=middle;resizable=0;points=[];autosize=1;strokeColor=none;fillColor=none;fontSize=12;" vertex="1" parent="738">
                    <mxGeometry x="40" y="45" width="80" height="30" as="geometry"/>
                </mxCell>
                <mxCell id="740" value="nom_antenne" style="text;html=1;align=center;verticalAlign=middle;resizable=0;points=[];autosize=1;strokeColor=none;fillColor=none;fontSize=12;" vertex="1" parent="738">
                    <mxGeometry x="30" y="75" width="100" height="30" as="geometry"/>
                </mxCell>
                <mxCell id="751" value="" style="endArrow=classic;html=1;fontSize=14;exitX=1;exitY=0.5;exitDx=0;exitDy=0;entryX=0;entryY=0.5;entryDx=0;entryDy=0;" edge="1" parent="1" source="729" target="704">
                    <mxGeometry width="50" height="50" relative="1" as="geometry">
                        <mxPoint x="420" y="7140" as="sourcePoint"/>
                        <mxPoint x="470" y="7090" as="targetPoint"/>
                    </mxGeometry>
                </mxCell>
                <mxCell id="752" value="" style="endArrow=classic;html=1;fontSize=14;exitX=0;exitY=0.5;exitDx=0;exitDy=0;entryX=1;entryY=0.5;entryDx=0;entryDy=0;" edge="1" parent="1" source="693" target="704">
                    <mxGeometry width="50" height="50" relative="1" as="geometry">
                        <mxPoint x="420" y="7140" as="sourcePoint"/>
                        <mxPoint x="470" y="7090" as="targetPoint"/>
                    </mxGeometry>
                </mxCell>
                <mxCell id="753" value="" style="endArrow=classic;html=1;fontSize=14;entryX=0.473;entryY=1.078;entryDx=0;entryDy=0;entryPerimeter=0;exitX=0.5;exitY=0;exitDx=0;exitDy=0;" edge="1" parent="1" source="738" target="748">
                    <mxGeometry width="50" height="50" relative="1" as="geometry">
                        <mxPoint x="420" y="7340" as="sourcePoint"/>
                        <mxPoint x="470" y="7290" as="targetPoint"/>
                    </mxGeometry>
                </mxCell>
                <mxCell id="755" value="" style="edgeStyle=segmentEdgeStyle;endArrow=classic;html=1;curved=0;rounded=0;endSize=8;startSize=8;fontSize=14;entryX=-0.009;entryY=0.638;entryDx=0;entryDy=0;entryPerimeter=0;exitX=0;exitY=0.5;exitDx=0;exitDy=0;" edge="1" parent="1" source="689">
                    <mxGeometry width="50" height="50" relative="1" as="geometry">
                        <mxPoint x="390" y="7070" as="sourcePoint"/>
                        <mxPoint x="84.6400000000001" y="7099.14" as="targetPoint"/>
                    </mxGeometry>
                </mxCell>
                <mxCell id="756" value="" style="edgeStyle=segmentEdgeStyle;endArrow=classic;html=1;curved=0;rounded=0;endSize=8;startSize=8;fontSize=14;entryX=0.5;entryY=1;entryDx=0;entryDy=0;exitX=0;exitY=0.25;exitDx=0;exitDy=0;" edge="1" parent="1" source="689" target="712">
                    <mxGeometry width="50" height="50" relative="1" as="geometry">
                        <mxPoint x="330" y="6920" as="sourcePoint"/>
                        <mxPoint x="380" y="6870" as="targetPoint"/>
                    </mxGeometry>
                </mxCell>
                <mxCell id="757" value="" style="endArrow=classic;html=1;fontSize=14;exitX=1;exitY=0.5;exitDx=0;exitDy=0;" edge="1" parent="1" source="689">
                    <mxGeometry width="50" height="50" relative="1" as="geometry">
                        <mxPoint x="330" y="6920" as="sourcePoint"/>
                        <mxPoint x="470" y="6870" as="targetPoint"/>
                    </mxGeometry>
                </mxCell>
                <mxCell id="758" value="ECRIRE" style="swimlane;whiteSpace=wrap;html=1;fontSize=14;startSize=23;" vertex="1" parent="1">
                    <mxGeometry x="470" y="6805" width="120" height="130" as="geometry"/>
                </mxCell>
                <mxCell id="760" value="&lt;u&gt;#id_ouvrage&lt;/u&gt;" style="text;html=1;align=center;verticalAlign=middle;resizable=0;points=[];autosize=1;strokeColor=none;fillColor=none;" vertex="1" parent="758">
                    <mxGeometry x="10" y="35" width="90" height="30" as="geometry"/>
                </mxCell>
                <mxCell id="761" value="#id_auteur&amp;nbsp;" style="text;html=1;align=center;verticalAlign=middle;resizable=0;points=[];autosize=1;strokeColor=none;fillColor=none;" vertex="1" parent="758">
                    <mxGeometry x="17.5" y="65" width="80" height="30" as="geometry"/>
                </mxCell>
                <mxCell id="759" value="" style="endArrow=classic;html=1;fontSize=14;entryX=1;entryY=0.5;entryDx=0;entryDy=0;exitX=0;exitY=0.5;exitDx=0;exitDy=0;" edge="1" parent="1" source="698" target="758">
                    <mxGeometry width="50" height="50" relative="1" as="geometry">
                        <mxPoint x="330" y="6930" as="sourcePoint"/>
                        <mxPoint x="380" y="6880" as="targetPoint"/>
                    </mxGeometry>
                </mxCell>
            </root>
        </mxGraphModel>
    </diagram>
</mxfile>